<?xml version="1.0" encoding="UTF-8" standalone="no"?>
<!-- Created with Inkscape (http://www.inkscape.org/) -->
<svg
   xmlns:svg="http://www.w3.org/2000/svg"
   xmlns="http://www.w3.org/2000/svg"
   version="1.0"
   width="1030.2866"
   height="549.52252"
   id="svg2"
   xml:space="preserve"><defs
     id="defs5" /><path
     d="M 2.1745812,334.52541 L 2.1745812,214.01254 L 129.41046,214.01254 C 129.41046,214.01254 141.17185,214.01254 146.21173,219.71959 C 151.25162,225.42665 152.65193,231.37145 152.98925,239.09745 C 153.32408,246.82345 150.24339,254.71624 145.82089,259.2545 C 145.82089,259.2545 142.06805,262.95755 136.35601,265.01881 C 136.35601,265.01881 145.48357,268.55383 149.57249,273.42568 C 152.06691,276.40554 157.07568,280.31771 157.69306,297.62061 C 158.3092,314.92351 149.23766,324.27885 147.61205,326.17207 C 145.98768,328.07899 138.14717,334.52541 124.87468,334.52541 L 2.1745812,334.52541 z M 95.138242,248.56357 L 54.227918,248.56357 L 54.227918,258.72549 L 95.97843,258.72549 C 96.578387,258.72549 97.60155,258.6421 98.833826,257.543 C 100.27148,256.27588 100.31754,254.43866 100.31754,253.77025 C 100.31754,253.10183 100.17813,251.27831 98.750429,249.81701 C 97.322732,248.36815 95.138242,248.56357 95.138242,248.56357 M 102.92274,291.64843 L 54.227918,291.64843 L 54.227918,301.56016 L 103.90234,301.56016 C 104.35044,301.56016 105.5267,301.39337 106.39428,300.58554 C 107.91284,299.16531 107.99126,297.14761 107.99126,296.65968 C 107.99126,296.18669 108.24269,294.44656 106.75773,292.97032 C 105.27402,291.48163 102.92274,291.64843 102.92274,291.64843"
     id="path15"
     style="fill:#231f20;fill-opacity:1;fill-rule:evenodd;stroke:none" /><path
     d="M 183.87208,334.52541 L 183.87208,213.97022 L 299.81309,213.97022 C 314.70869,214.62494 321.04185,218.7039 326.08173,223.24216 C 331.12162,227.78042 335.82667,238.26224 335.43707,248.73036 C 335.04623,259.19973 332.4709,268.38704 325.41332,275.66742 C 318.35573,282.94781 307.2055,284.17262 307.2055,284.17262 L 337.90038,334.52541 L 281.45093,334.52541 L 253.90271,288.71088 L 235.08125,288.71088 L 235.08125,334.52541 L 183.87208,334.52541 z M 235.08125,258.72549 L 276.8579,258.72549 C 276.8579,258.72549 278.93161,258.5587 279.96224,257.48699 C 280.97794,256.45636 281.31277,254.96643 281.31277,253.79763 C 281.31277,252.6139 281.20074,251.5285 279.96224,250.09458 C 278.73743,248.6756 276.4683,248.70298 276.4683,248.70298 L 235.08125,248.70298 L 235.08125,258.72549"
     id="path17"
     style="fill:#231f20;fill-opacity:1;fill-rule:evenodd;stroke:none" /><path
     d="M 358.79555,213.97022 L 410.53995,213.97022 L 410.53995,287.31928 C 410.53995,287.31928 410.59472,294.02958 414.13098,296.71569 C 417.6523,299.40305 421.30058,301.99208 432.15831,301.99208 C 443.01727,301.99208 447.88912,297.84341 448.57123,296.88249 C 449.23964,295.9365 451.75896,294.65568 452.09255,288.71088 C 452.42738,282.78102 452.09255,213.97022 452.09255,213.97022 L 500.816,213.97022 L 500.816,291.00864 C 500.816,291.00864 500.87202,308.53434 489.84626,318.61287 C 489.84626,318.61287 481.71697,327.07699 467.48978,330.93314 C 467.48978,330.93314 449.71264,336.4037 431.10029,336.0975 C 415.45287,335.83362 404.49806,334.88638 388.08514,329.20671 C 375.09645,324.71077 369.43171,318.72489 368.5965,317.83367 C 367.76005,316.94245 358.62876,309.32848 358.79555,288.71088 L 358.79555,213.97022"
     id="path19"
     style="fill:#231f20;fill-opacity:1;fill-rule:nonzero;stroke:none" /><path
     d="M 533.05683,334.69221 L 581.48777,334.69221 L 581.48777,299.80634 L 597.95546,286.69318 L 629.48555,334.69221 L 690.41725,334.69221 L 637.21279,256.90197 L 685.43462,213.97022 L 620.18747,213.97022 L 581.48777,253.04582 L 581.48777,213.97022 L 533.05683,213.97022"
     id="path21"
     style="fill:#231f20;fill-opacity:1;fill-rule:nonzero;stroke:none" /><path
     d="M 705.52197,334.35738 L 705.52197,213.98391 L 845.89938,213.98391 L 845.89938,247.12965 L 756.97261,247.12965 L 756.97261,255.78794 L 825.00421,255.78794 L 825.00421,288.68349 L 756.97261,288.68349 L 756.97261,297.31441 L 845.89938,297.31441 L 845.89938,334.35738"
     id="path31"
     style="fill:#231f20;fill-opacity:1;fill-rule:nonzero;stroke:none" /><path
     d="M 874.11726,334.52541 L 874.11726,213.97022 L 990.06325,213.97022 C 1004.9589,214.62494 1011.2783,218.7039 1016.3182,223.24216 C 1021.3568,227.78042 1026.0631,238.26224 1025.6735,248.73036 C 1025.2827,259.19973 1022.7074,268.38704 1015.6498,275.66742 C 1008.5922,282.94781 997.45566,284.17262 997.45566,284.17262 L 1028.1368,334.52541 L 971.6874,334.52541 L 944.13918,288.71088 L 925.31772,288.71088 L 925.31772,334.52541 L 874.11726,334.52541 z M 925.31772,258.72549 L 967.09437,258.72549 C 967.09437,258.72549 969.16808,258.5587 970.2124,257.48699 C 971.2144,256.45636 971.54923,254.96643 971.54923,253.79763 C 971.54923,252.6139 971.43721,251.5285 970.2124,250.09458 C 968.9739,248.6756 966.70477,248.70298 966.70477,248.70298 L 925.31772,248.70298 L 925.31772,258.72549"
     id="path33"
     style="fill:#231f20;fill-opacity:1;fill-rule:evenodd;stroke:none" /><path
     d="M 218.73803,205.50734 C 218.73803,205.50734 127.68402,82.766413 178.92555,31.356847 C 219.78235,-8.8053978 332.79204,6.8420201 439.28559,58.015089 C 576.7404,125.8799 628.67897,179.19638 668.83997,205.50734 C 669.7175,205.882 643.57457,205.50734 643.57457,205.50734 C 503.69754,91.257916 266.01387,-29.032153 191.04418,44.512329 C 149.49656,86.748283 246.44059,194.77285 250.50586,205.50734 L 218.73803,205.50734"
     id="path45"
     style="fill:#0071bc;fill-opacity:1;fill-rule:nonzero;stroke:none" /><path
     d="M 374.55375,205.50734 C 576.05829,38.623543 695.84673,14.22074 788.64335,14.22074 C 876.23329,14.22074 879.0028,73.259216 879.35133,82.766413 C 880.90972,125.36458 850.61813,172.27696 828.80435,205.50734 L 808.71701,205.50734 C 825.68632,183.70601 890.78038,98.177334 853.38889,55.592857 C 821.46795,19.245689 712.46877,37.941434 631.44848,73.244279 C 553.20019,101.64264 453.13687,172.62549 419.29533,205.50734 C 419.29533,205.50734 374.27618,205.7289 374.55375,205.50734"
     id="path47"
     style="fill:#0071bc;fill-opacity:1;fill-rule:nonzero;stroke:none" /><path
     d="M 320.35974,32.011572 C 320.35974,14.87422 334.25334,0.98186231 351.38945,0.98186231 C 368.5268,0.98186231 382.41916,14.87422 382.41916,32.011572 C 382.41916,49.147679 368.5268,63.041282 351.38945,63.041282 C 334.25334,63.041282 320.35974,49.147679 320.35974,32.011572"
     id="path43"
     style="fill:#0071bc;fill-opacity:1;fill-rule:nonzero;stroke:none" /><path
     d="M 218.73803,343.8235 C 218.73803,343.8235 127.68402,466.56318 178.92555,517.97399 C 219.78235,558.14868 332.79204,542.48757 439.28559,491.31451 C 576.7404,423.46463 628.67897,370.13446 668.83997,343.8235 C 669.7175,343.44759 643.57457,343.8235 643.57457,343.8235 C 503.69754,458.08537 266.01387,578.37544 191.04418,504.81851 C 149.49656,462.58256 246.44059,354.55675 250.50586,343.8235 L 218.73803,343.8235"
     id="path59"
     style="fill:#0071bc;fill-opacity:1;fill-rule:nonzero;stroke:none" /><path
     d="M 374.55375,343.8235 C 576.05829,510.7073 695.84673,535.12379 788.64335,535.12379 C 876.23329,535.12379 879.0028,476.08532 879.35133,466.56318 C 880.90972,423.97995 850.61813,377.06757 828.80435,343.8235 L 808.71701,343.8235 C 825.68632,365.63727 890.78038,451.15351 853.38889,493.73674 C 821.46795,530.08515 712.46877,511.4031 631.44848,476.08532 C 553.20019,447.68695 453.13687,376.71905 419.29533,343.8235 C 419.29533,343.8235 374.27618,343.60069 374.55375,343.8235"
     id="path61"
     style="fill:#0071bc;fill-opacity:1;fill-rule:nonzero;stroke:none" /><path
     d="M 320.35974,517.33296 C 320.35974,500.19685 334.25334,486.30325 351.38945,486.30325 C 368.5268,486.30325 382.41916,500.19685 382.41916,517.33296 C 382.41916,534.46907 368.5268,548.36267 351.38945,548.36267 C 334.25334,548.36267 320.35974,534.46907 320.35974,517.33296"
     id="path57"
     style="fill:#0071bc;fill-opacity:1;fill-rule:nonzero;stroke:none" /></svg>