<?xml version="1.0" encoding="UTF-8" standalone="no"?>
<!-- Created with Inkscape (http://www.inkscape.org/) -->

<svg
   version="1.1"
   id="svg2"
   xml:space="preserve"
   width="558.27869"
   height="185.90401"
   viewBox="0 0 558.27869 185.90401"
   sodipodi:docname="biogen.svg"
   inkscape:version="1.1.1 (3bf5ae0d25, 2021-09-20)"
   xmlns:inkscape="http://www.inkscape.org/namespaces/inkscape"
   xmlns:sodipodi="http://sodipodi.sourceforge.net/DTD/sodipodi-0.dtd"
   xmlns="http://www.w3.org/2000/svg"
   xmlns:svg="http://www.w3.org/2000/svg"><defs
     id="defs6"><clipPath
       clipPathUnits="userSpaceOnUse"
       id="clipPath16"><path
         d="M 0,139.428 H 418.709 V 0 H 0 Z"
         id="path14" /></clipPath><linearGradient
       x1="0"
       y1="0"
       x2="1"
       y2="0"
       gradientUnits="userSpaceOnUse"
       gradientTransform="matrix(25.857044,-25.857044,-25.857044,-25.857044,36.010742,91.59668)"
       spreadMethod="pad"
       id="linearGradient60"><stop
         style="stop-opacity:1;stop-color:#ecf1c5"
         offset="0"
         id="stop52" /><stop
         style="stop-opacity:1;stop-color:#ecf1c5"
         offset="0.168248"
         id="stop54" /><stop
         style="stop-opacity:1;stop-color:#dbe2a1"
         offset="0.744041"
         id="stop56" /><stop
         style="stop-opacity:1;stop-color:#dbe2a1"
         offset="1"
         id="stop58" /></linearGradient><linearGradient
       x1="0"
       y1="0"
       x2="1"
       y2="0"
       gradientUnits="userSpaceOnUse"
       gradientTransform="matrix(-26.740864,9.7328739,9.7328739,26.740864,83.953125,97.152344)"
       spreadMethod="pad"
       id="linearGradient84"><stop
         style="stop-opacity:1;stop-color:#dbe2a1"
         offset="0"
         id="stop76" /><stop
         style="stop-opacity:1;stop-color:#b6cb6e"
         offset="0.49990325"
         id="stop78" /><stop
         style="stop-opacity:1;stop-color:#b6cb6e"
         offset="0.744041"
         id="stop80" /><stop
         style="stop-opacity:1;stop-color:#b6cb6e"
         offset="1"
         id="stop82" /></linearGradient><linearGradient
       x1="0"
       y1="0"
       x2="1"
       y2="0"
       gradientUnits="userSpaceOnUse"
       gradientTransform="matrix(-33.48827,28.099981,28.099981,33.48827,71.489258,111.36426)"
       spreadMethod="pad"
       id="linearGradient108"><stop
         style="stop-opacity:1;stop-color:#b5ca6d"
         offset="0"
         id="stop100" /><stop
         style="stop-opacity:1;stop-color:#6a9f54"
         offset="0.38658062"
         id="stop102" /><stop
         style="stop-opacity:1;stop-color:#6a9f54"
         offset="0.575375"
         id="stop104" /><stop
         style="stop-opacity:1;stop-color:#6a9f54"
         offset="1"
         id="stop106" /></linearGradient><radialGradient
       fx="0"
       fy="0"
       cx="0"
       cy="0"
       r="1"
       gradientUnits="userSpaceOnUse"
       gradientTransform="matrix(27.327028,0,0,-27.327028,33.586914,107.30518)"
       spreadMethod="pad"
       id="radialGradient132"><stop
         style="stop-opacity:1;stop-color:#3a5c7b"
         offset="0"
         id="stop124" /><stop
         style="stop-opacity:1;stop-color:#3a5c7b"
         offset="0.166235"
         id="stop126" /><stop
         style="stop-opacity:1;stop-color:#3a5c7b"
         offset="0.20012568"
         id="stop128" /><stop
         style="stop-opacity:1;stop-color:#5b89b4"
         offset="1"
         id="stop130" /></radialGradient><radialGradient
       fx="0"
       fy="0"
       cx="0"
       cy="0"
       r="1"
       gradientUnits="userSpaceOnUse"
       gradientTransform="matrix(4.7375755,41.5812,-24.634762,2.6669919,12.051758,112.64551)"
       spreadMethod="pad"
       id="radialGradient154"><stop
         style="stop-opacity:1;stop-color:#e6f1f7"
         offset="0"
         id="stop148" /><stop
         style="stop-opacity:1;stop-color:#6799cb"
         offset="0.52660404"
         id="stop150" /><stop
         style="stop-opacity:1;stop-color:#6799cb"
         offset="1"
         id="stop152" /></radialGradient><clipPath
       clipPathUnits="userSpaceOnUse"
       id="clipPath164"><path
         d="M 0,139.428 H 418.709 V 0 H 0 Z"
         id="path162" /></clipPath></defs><sodipodi:namedview
     id="namedview4"
     pagecolor="#ffffff"
     bordercolor="#666666"
     borderopacity="1.0"
     inkscape:pageshadow="2"
     inkscape:pageopacity="0.0"
     inkscape:pagecheckerboard="0"
     showgrid="false"
     inkscape:zoom="1.281618"
     inkscape:cx="207.94028"
     inkscape:cy="106.11586"
     inkscape:window-width="1920"
     inkscape:window-height="1019"
     inkscape:window-x="1920"
     inkscape:window-y="0"
     inkscape:window-maximized="1"
     inkscape:current-layer="g8" /><g
     id="g8"
     inkscape:groupmode="layer"
     inkscape:label="Biogen_Logo_Standard-rgb_R-1"
     transform="matrix(1.3333333,0,0,-1.3333333,0,185.904)"><g
       id="g10"><g
         id="g12"
         clip-path="url(#clipPath16)"><g
           id="g18"
           transform="translate(108.2744,32.5557)"><path
             d="m 0,0 h 18.154 c 3.845,0 6.877,1.008 9.105,3.023 2.226,2.018 3.341,4.739 3.341,8.166 0,3.27 -1.132,5.953 -3.396,8.048 -2.267,2.093 -5.262,3.14 -8.993,3.14 L 0,22.377 Z m 0,33.506 h 17.128 c 3.501,0 6.27,1.048 8.304,3.14 2.038,2.091 3.055,4.755 3.055,7.992 0,3.575 -1.163,6.213 -3.482,7.905 -2.321,1.693 -5.042,2.54 -8.159,2.54 H 0 Z m -13.297,-45.207 v 77.918 h 30.368 c 5.139,0 9.399,-0.535 12.785,-1.6 3.388,-1.065 6.318,-3.293 8.792,-6.678 2.475,-3.389 3.712,-7.365 3.712,-11.932 0,-4.301 -1.257,-8.041 -3.769,-11.216 -2.511,-3.176 -5.976,-5.203 -10.39,-6.08 5.482,-0.951 9.627,-3.179 12.446,-6.679 2.815,-3.504 4.225,-7.646 4.225,-12.443 0,-6.013 -1.969,-11.064 -5.91,-15.154 -3.938,-4.094 -10,-6.136 -18.181,-6.136 z"
             style="fill:#2573ba;fill-opacity:1;fill-rule:nonzero;stroke:none"
             id="path20" /></g><path
           d="m 173.527,20.853 h -13.015 v 57.653 h 13.015 z m 0,64.392 h -13.015 v 13.527 h 13.015 z"
           style="fill:#2573ba;fill-opacity:1;fill-rule:nonzero;stroke:none"
           id="path22" /><g
           id="g24"
           transform="translate(207.4922,30.3857)"><path
             d="m 0,0 c 8.755,0 13.131,6.525 13.131,19.579 0,5.9 -1.048,10.552 -3.141,13.957 -2.093,3.406 -5.307,5.11 -9.647,5.11 -4.489,0 -7.819,-1.762 -9.99,-5.28 -2.169,-3.52 -3.255,-8.193 -3.255,-14.014 0,-6.279 1.151,-11.073 3.457,-14.384 C -7.144,1.653 -3.995,0 0,0 m -0.456,-10.732 c -8.523,0 -15.032,3.062 -19.523,9.191 -4.489,6.127 -6.737,13.146 -6.737,21.063 0,8.524 2.486,15.624 7.449,21.292 4.969,5.671 11.525,8.506 19.669,8.506 7.724,0 14.071,-2.761 19.037,-8.278 4.965,-5.518 7.447,-12.692 7.447,-21.52 0,-9.094 -2.575,-16.411 -7.733,-21.949 -5.158,-5.535 -11.693,-8.305 -19.609,-8.305"
             style="fill:#2573ba;fill-opacity:1;fill-rule:nonzero;stroke:none"
             id="path26" /></g><g
           id="g28"
           transform="translate(333.374,56.4727)"><path
             d="m 0,0 c -0.039,4.148 -1.283,7.534 -3.738,10.158 -2.455,2.629 -5.489,3.941 -9.106,3.941 -3.576,0 -6.564,-1.226 -8.961,-3.683 C -24.203,7.963 -25.609,4.49 -26.029,0 Z m 0.797,-17.239 11.761,-1.601 c -1.522,-5.211 -4.495,-9.514 -8.902,-12.897 -4.42,-3.389 -9.953,-5.081 -16.613,-5.081 -7.99,0 -14.424,2.682 -19.295,8.048 -4.871,5.366 -7.307,12.634 -7.307,21.807 0,8.713 2.454,15.924 7.364,21.633 4.908,5.71 11.57,8.563 19.98,8.563 8.219,0 14.574,-2.817 19.063,-8.451 4.489,-5.629 6.737,-12.863 6.737,-21.689 l -0.057,-1.485 h -39.557 c 0,-3.919 0.371,-7.057 1.111,-9.416 0.744,-2.362 2.217,-4.416 4.428,-6.165 2.205,-1.754 4.963,-2.629 8.275,-2.629 6.432,0 10.77,3.122 13.012,9.363"
             style="fill:#2573ba;fill-opacity:1;fill-rule:nonzero;stroke:none"
             id="path30" /></g><g
           id="g32"
           transform="translate(401.8789,20.8545)"><path
             d="m 0,0 h -13.02 v 36.019 c 0,3.803 -0.869,6.668 -2.621,8.589 -1.752,1.924 -3.863,2.882 -6.336,2.882 -3.39,0 -6.355,-1.484 -8.906,-4.451 -2.551,-2.97 -3.826,-7.442 -3.826,-13.414 V 0 h -13.014 v 57.653 h 11.875 V 44.295 c 4.147,9.702 9.967,14.557 17.465,14.557 5.061,0 9.39,-1.598 12.987,-4.797 C -1.797,50.858 0,45.245 0,37.219 Z"
             style="fill:#2573ba;fill-opacity:1;fill-rule:nonzero;stroke:none"
             id="path34" /></g><g
           id="g36"
           transform="translate(266.9619,8.9404)"><path
             d="m 0,0 c -6.846,0 -11.828,1.004 -14.961,3.013 -3.135,2.006 -4.701,4.325 -4.701,6.962 0,1.605 0.935,3.268 2.81,4.986 3.629,-0.954 6.764,-1.433 9.397,-1.433 H 6.418 c 2.252,0 4.262,-0.488 6.018,-1.464 1.759,-0.97 2.638,-2.414 2.638,-4.326 C 15.074,2.58 10.049,0 0,0 m -10.289,59.902 c 1.891,1.834 4.557,2.751 7.994,2.751 3.402,0 5.988,-0.881 7.768,-2.637 1.775,-1.761 2.664,-3.917 2.664,-6.478 0,-6.687 -3.555,-10.031 -10.66,-10.031 -3.327,0 -5.924,0.879 -7.797,2.638 -1.871,1.755 -2.807,4.05 -2.807,6.878 0,2.751 0.941,5.044 2.838,6.879 M 22.209,21.352 C 18.865,24.391 14.25,25.909 8.365,25.909 H -8.83 c -2.639,0 -4.606,0.591 -5.902,1.778 -1.301,1.186 -1.95,2.482 -1.95,3.899 0,2.559 1.338,4.451 4.012,5.674 4.09,-0.992 7.662,-1.489 10.719,-1.489 7.07,0 12.754,1.68 17.053,5.046 4.302,3.363 6.449,7.602 6.449,12.721 0,3.436 -1.287,6.634 -3.862,9.598 L 26,63.865 24.139,74.951 8.43,69.665 8.365,69.702 c -3.783,0.805 -7.508,1.205 -11.176,1.205 -8.027,0 -14.003,-1.7 -17.939,-5.098 -3.939,-3.403 -5.902,-7.515 -5.902,-12.327 0,-5.695 2.672,-10.164 8.023,-13.415 -6.152,-2.976 -9.229,-6.991 -9.229,-12.035 0,-3.324 1.796,-6.516 5.387,-9.573 -5.617,-2.675 -8.427,-6.594 -8.427,-11.751 0,-10.435 9.343,-15.648 28.029,-15.648 9.937,0 17.435,1.794 22.5,5.389 5.064,3.59 7.594,8.117 7.594,13.583 0,4.507 -1.672,8.284 -5.016,11.32"
             style="fill:#2573ba;fill-opacity:1;fill-rule:nonzero;stroke:none"
             id="path38" /></g></g></g><g
       id="g40"><g
         id="g42"><g
           id="g48"><g
             id="g50"><path
               d="M 49.902,90.022 C 38.258,81.459 23.369,77.267 23.369,77.267 v 0 c 0,0 -1.044,-0.299 -2.358,-0.669 v 0 C 27.647,70.016 36.778,65.947 46.863,65.947 v 0 c 12.201,0 23.009,5.951 29.691,15.104 v 0 c -6.68,-2.372 -15.962,2.472 -24.95,10.314 v 0 c -0.979,-0.848 -1.702,-1.343 -1.702,-1.343"
               style="fill:url(#linearGradient60);stroke:none"
               id="path62" /></g></g></g></g><g
       id="g64"><g
         id="g66"><g
           id="g72"><g
             id="g74"><path
               d="m 56.61,105.231 c 0.439,-2.063 0.703,-4.672 0.031,-6.953 v 0 c -0.876,-2.914 -3.343,-5.446 -5.037,-6.913 v 0 c 8.988,-7.842 18.27,-12.686 24.95,-10.314 v 0 c 1.293,1.772 2.437,3.661 3.402,5.653 v 0 c 0.08,0.167 0.153,0.337 0.23,0.504 v 0 c 0.153,0.329 0.306,0.658 0.449,0.992 v 0 c 0.134,0.311 0.259,0.627 0.384,0.943 v 0 c 0.075,0.195 0.155,0.387 0.229,0.583 v 0 c 0.141,0.375 0.273,0.755 0.404,1.136 v 0 c 0.046,0.139 0.094,0.277 0.14,0.417 v 0 c 0.136,0.418 0.264,0.839 0.385,1.263 v 0 c 0.026,0.091 0.052,0.183 0.078,0.275 v 0 c 0.423,1.522 0.752,3.082 0.98,4.675 v 0 c 0.015,0.109 0.027,0.22 0.041,0.33 v 0 c 0.087,0.649 0.154,1.303 0.205,1.961 v 0 c 0.016,0.189 0.032,0.377 0.044,0.567 v 0 c 0.049,0.772 0.081,1.55 0.081,2.335 v 0 c 0,0.746 -0.029,1.486 -0.072,2.222 v 0 c -0.013,0.219 -0.033,0.438 -0.051,0.657 v 0 c -0.04,0.532 -0.094,1.063 -0.156,1.589 v 0 c -0.028,0.224 -0.054,0.448 -0.086,0.672 v 0 c -0.084,0.601 -0.184,1.196 -0.296,1.789 v 0 c -0.023,0.117 -0.04,0.236 -0.063,0.353 v 0 c -0.144,0.711 -0.309,1.415 -0.492,2.111 v 0 c -0.043,0.16 -0.091,0.317 -0.135,0.476 v 0 c -0.149,0.534 -0.309,1.063 -0.481,1.588 v 0 c -0.068,0.209 -0.139,0.419 -0.211,0.628 v 0 c -0.172,0.494 -0.356,0.982 -0.549,1.466 v 0 c -0.073,0.185 -0.142,0.373 -0.218,0.556 v 0 c -0.262,0.63 -0.539,1.251 -0.834,1.863 v 0 c -0.096,0.198 -0.201,0.392 -0.301,0.588 v 0 c -0.203,0.404 -0.412,0.804 -0.628,1.199 v 0 c -0.064,0.114 -0.132,0.225 -0.196,0.338 v 0 C 75.781,114.608 67.072,109.231 56.61,105.231"
               style="fill:url(#linearGradient84);stroke:none"
               id="path86" /></g></g></g></g><g
       id="g88"><g
         id="g90"><g
           id="g96"><g
             id="g98"><path
               d="m 46.863,139.428 c -3.497,0 -6.877,-0.5 -10.081,-1.414 v 0 c 1.982,-2.194 3.499,-3.927 3.499,-3.927 v 0 c 0,0 10.174,-11.654 15.238,-25.189 v 0 c 0,0 0.638,-1.544 1.091,-3.667 v 0 c 10.462,4 19.171,9.377 22.227,15.549 v 0 c -0.37,0.651 -0.757,1.29 -1.164,1.914 v 0 c -0.236,0.365 -0.481,0.723 -0.728,1.079 v 0 c -0.414,0.588 -0.845,1.164 -1.292,1.728 v 0 c -0.172,0.216 -0.34,0.434 -0.517,0.647 v 0 c -0.343,0.414 -0.693,0.82 -1.055,1.218 v 0 c -0.031,0.035 -0.064,0.069 -0.096,0.103 v 0 c -6.718,7.348 -16.381,11.959 -27.122,11.959 z"
               style="fill:url(#linearGradient108);stroke:none"
               id="path110" /></g></g></g></g><g
       id="g112"><g
         id="g114"><g
           id="g120"><g
             id="g122"><path
               d="m 36.749,138.004 c -0.441,-0.126 -0.879,-0.261 -1.312,-0.402 v 0 c -0.063,-0.021 -0.125,-0.041 -0.188,-0.063 v 0 c -0.426,-0.142 -0.849,-0.29 -1.268,-0.447 v 0 c -0.044,-0.017 -0.086,-0.034 -0.13,-0.051 v 0 c -1.339,-0.506 -2.642,-1.09 -3.901,-1.745 v 0 c -0.02,-0.01 -0.039,-0.018 -0.058,-0.029 v 0 c -0.317,-0.165 -0.629,-0.34 -0.941,-0.514 v 0 c -0.162,-0.091 -0.324,-0.181 -0.484,-0.273 v 0 c -0.272,-0.157 -0.539,-0.32 -0.806,-0.484 v 0 c -0.199,-0.122 -0.396,-0.245 -0.593,-0.371 v 0 c -0.239,-0.154 -0.478,-0.31 -0.712,-0.468 v 0 c -0.228,-0.154 -0.453,-0.313 -0.677,-0.471 v 0 c -0.204,-0.144 -0.409,-0.287 -0.609,-0.435 v 0 c -0.297,-0.218 -0.587,-0.444 -0.878,-0.673 v 0 c -0.124,-0.097 -0.252,-0.192 -0.375,-0.291 v 0 c -0.418,-0.336 -0.827,-0.683 -1.228,-1.036 v 0 c -0.087,-0.077 -0.17,-0.156 -0.256,-0.233 v 0 c -0.32,-0.288 -0.637,-0.58 -0.947,-0.879 v 0 c -0.038,-0.037 -0.075,-0.075 -0.114,-0.111 v 0 c -6.87,-6.674 -11.146,-16.005 -11.146,-26.343 v 0 c 0,-3.493 0.498,-6.868 1.409,-10.069 v 0 c 0.005,-0.019 0.011,-0.037 0.016,-0.057 v 0 c 0.671,-2.339 1.566,-4.582 2.663,-6.706 v 0 c 0.035,-0.068 0.069,-0.136 0.105,-0.203 v 0 c 0.195,-0.373 0.398,-0.744 0.607,-1.109 v 0 c 0.048,-0.088 0.099,-0.173 0.149,-0.26 v 0 c 0.211,-0.363 0.426,-0.724 0.649,-1.08 v 0 c 0.025,-0.04 0.052,-0.08 0.078,-0.12 v 0 c 0.696,-1.101 1.45,-2.16 2.256,-3.178 v 0 c 0.103,-0.131 0.205,-0.262 0.31,-0.392 v 0 c 0.209,-0.257 0.424,-0.51 0.641,-0.761 v 0 c 0.139,-0.161 0.277,-0.322 0.419,-0.481 v 0 c 0.206,-0.232 0.415,-0.461 0.627,-0.687 v 0 c 0.164,-0.177 0.333,-0.349 0.502,-0.522 v 0 c 0.149,-0.154 0.293,-0.313 0.446,-0.465 v 0 c 0.003,0.001 0.006,0.002 0.008,0.003 v 0 c 1.314,0.37 2.358,0.669 2.358,0.669 v 0 c 0,0 14.889,4.192 26.533,12.755 v 0 c 0,0 0.723,0.495 1.702,1.343 v 0 c 1.694,1.467 4.161,3.999 5.037,6.913 v 0 c 0.672,2.281 0.408,4.89 -0.031,6.953 v 0 c -0.453,2.123 -1.091,3.667 -1.091,3.667 v 0 c -5.064,13.535 -15.238,25.189 -15.238,25.189 v 0 c 0,0 -1.517,1.733 -3.499,3.927 v 0 l -10e-4,10e-4 c -0.011,-0.004 -0.021,-0.007 -0.032,-0.011"
               style="fill:url(#radialGradient132);stroke:none"
               id="path134" /></g></g></g></g><g
       id="g136"><g
         id="g138"><g
           id="g144"><g
             id="g146"><path
               d="M 1.413,113.572 C -3.616,96.676 6.396,81.233 6.396,81.233 v 0 c 0,0 14.891,4.191 26.534,12.755 v 0 c 0,0 5.356,3.657 6.739,8.257 v 0 h 0.001 c 10e-4,0.003 10e-4,0.008 0.003,0.011 v 0 c 10e-4,0.004 0.003,0.008 0.003,0.013 v 0 c 1.357,4.605 -1.127,10.596 -1.127,10.596 v 0 C 33.484,126.4 23.308,138.054 23.308,138.054 v 0 c 0,0 -16.866,-7.584 -21.895,-24.482"
               style="fill:url(#radialGradient154);stroke:none"
               id="path156" /></g></g></g></g><g
       id="g158"><g
         id="g160"
         clip-path="url(#clipPath164)"><g
           id="g166"
           transform="translate(411.582,24.2085)"><path
             d="m 0,0 h 0.762 c 0.245,0 0.654,0.065 0.654,0.483 0,0.202 -0.137,0.453 -0.592,0.453 L 0,0.936 Z m 0,-1.945 h -0.729 v 3.441 h 1.597 c 0.2,0 1.31,0 1.31,-1.028 0,-0.655 -0.471,-0.841 -0.639,-0.917 L 2.178,-1.945 H 1.404 l -0.566,1.37 H 0 Z m 0.627,-0.921 c 1.445,0 2.631,1.183 2.631,2.634 0,1.48 -1.186,2.648 -2.631,2.648 -1.434,0 -2.635,-1.168 -2.635,-2.648 0,-1.451 1.186,-2.634 2.635,-2.634 m 0,5.857 c 1.733,0 3.212,-1.415 3.212,-3.223 0,-1.763 -1.448,-3.209 -3.212,-3.209 -1.78,0 -3.213,1.446 -3.213,3.209 0,1.808 1.445,3.223 3.213,3.223"
             style="fill:#2573ba;fill-opacity:1;fill-rule:nonzero;stroke:none"
             id="path168" /></g></g></g></g></svg>
