<?xml version="1.0" encoding="utf-8"?>
<!-- Generator: Adobe Illustrator 23.1.1, SVG Export Plug-In . SVG Version: 6.00 Build 0)  -->
<svg version="1.1"
	 id="svg2" xmlns:inkscape="http://www.inkscape.org/namespaces/inkscape" xmlns:sodipodi="http://sodipodi.sourceforge.net/DTD/sodipodi-0.dtd" xmlns:svg="http://www.w3.org/2000/svg"
	 xmlns="http://www.w3.org/2000/svg" xmlns:xlink="http://www.w3.org/1999/xlink" x="0px" y="0px" viewBox="0 0 1000 250"
	 style="enable-background:new 0 0 1000 250;" xml:space="preserve">
<style type="text/css">
	.st0{clip-path:url(#SVGID_2_);}
	.st1{fill:#2573BA;}
	.st2{fill:url(#path62_1_);}
	.st3{fill:url(#path86_1_);}
	.st4{fill:url(#path110_1_);}
	.st5{fill:url(#path134_1_);}
	.st6{fill:url(#path156_1_);}
	.st7{clip-path:url(#SVGID_4_);}
</style>
<sodipodi:namedview  bordercolor="#666666" borderopacity="1.0" id="namedview4" inkscape:current-layer="g8" inkscape:cx="207.94028" inkscape:cy="106.11586" inkscape:pagecheckerboard="0" inkscape:pageopacity="0.0" inkscape:pageshadow="2" inkscape:window-height="1019" inkscape:window-maximized="1" inkscape:window-width="1920" inkscape:window-x="1920" inkscape:window-y="0" inkscape:zoom="1.281618" pagecolor="#ffffff" showgrid="false">
	</sodipodi:namedview>
<g id="g8" transform="matrix(1.3333333,0,0,-1.3333333,0,185.904)" inkscape:groupmode="layer" inkscape:label="Biogen_Logo_Standard-rgb_R-1">
	<g id="g10">
		<g>
			<defs>
				<rect id="SVGID_1_" x="40" y="-65.9" width="670" height="223.1"/>
			</defs>
			<clipPath id="SVGID_2_">
				<use xlink:href="#SVGID_1_"  style="overflow:visible;"/>
			</clipPath>
			<g id="g12" class="st0">
				<g id="g18" transform="translate(108.2744,32.5557)">
					<path id="path20" class="st1" d="M145.4-31.5h21.8c4.6,0,8.3,1.2,10.9,3.6c2.7,2.4,4,5.7,4,9.8c0,3.9-1.4,7.1-4.1,9.7
						c-2.7,2.5-6.3,3.8-10.8,3.8l-21.9,0V-31.5z M145.4,8.7H166c4.2,0,7.5,1.3,10,3.8c2.4,2.5,3.7,5.7,3.7,9.6
						c0,4.3-1.4,7.5-4.2,9.5c-2.8,2-6.1,3-9.8,3h-20.2V8.7z M129.5-45.5V48h36.4c6.2,0,11.3-0.6,15.3-1.9c4.1-1.3,7.6-4,10.6-8
						c3-4.1,4.5-8.8,4.5-14.3c0-5.2-1.5-9.7-4.5-13.5c-3-3.8-7.2-6.2-12.5-7.3c6.6-1.1,11.6-3.8,14.9-8c3.4-4.2,5.1-9.2,5.1-14.9
						c0-7.2-2.4-13.3-7.1-18.2c-4.7-4.9-12-7.4-21.8-7.4L129.5-45.5z"/>
				</g>
				<path id="path22" class="st1" d="M332-13h-15.6v69.2H332V-13z M332,64.3h-15.6v16.2H332V64.3z"/>
				<g id="g24" transform="translate(207.4922,30.3857)">
					<path id="path26" class="st1" d="M165.3-31.9c10.5,0,15.8,7.8,15.8,23.5c0,7.1-1.3,12.7-3.8,16.8c-2.5,4.1-6.4,6.1-11.6,6.1
						c-5.4,0-9.4-2.1-12-6.3c-2.6-4.2-3.9-9.8-3.9-16.8c0-7.5,1.4-13.3,4.1-17.3C156.7-29.9,160.5-31.9,165.3-31.9 M164.7-44.8
						c-10.2,0-18,3.7-23.4,11c-5.4,7.4-8.1,15.8-8.1,25.3c0,10.2,3,18.8,8.9,25.6c6,6.8,13.8,10.2,23.6,10.2
						c9.3,0,16.9-3.3,22.8-9.9c6-6.6,8.9-15.2,8.9-25.8c0-10.9-3.1-19.7-9.3-26.3C182.1-41.5,174.2-44.8,164.7-44.8"/>
				</g>
				<g id="g28" transform="translate(333.374,56.4727)">
					<path id="path30" class="st1" d="M190.5-26.7c0,5-1.5,9-4.5,12.2c-2.9,3.2-6.6,4.7-10.9,4.7c-4.3,0-7.9-1.5-10.8-4.4
						c-2.9-2.9-4.6-7.1-5.1-12.5H190.5z M191.4-47.4l14.1-1.9c-1.8-6.3-5.4-11.4-10.7-15.5c-5.3-4.1-11.9-6.1-19.9-6.1
						c-9.6,0-17.3,3.2-23.2,9.7c-5.8,6.4-8.8,15.2-8.8,26.2c0,10.5,2.9,19.1,8.8,26c5.9,6.9,13.9,10.3,24,10.3
						c9.9,0,17.5-3.4,22.9-10.1c5.4-6.8,8.1-15.4,8.1-26l-0.1-1.8h-47.5c0-4.7,0.4-8.5,1.3-11.3c0.9-2.8,2.7-5.3,5.3-7.4
						c2.6-2.1,6-3.2,9.9-3.2C183.5-58.6,188.7-54.9,191.4-47.4"/>
				</g>
				<g id="g32" transform="translate(401.8789,20.8545)">
					<path id="path34" class="st1" d="M204.2-33.8h-15.6V9.4c0,4.6-1,8-3.1,10.3c-2.1,2.3-4.6,3.5-7.6,3.5c-4.1,0-7.6-1.8-10.7-5.3
						c-3.1-3.6-4.6-8.9-4.6-16.1v-35.6h-15.6v69.2h14.3v-16c5,11.6,12,17.5,21,17.5c6.1,0,11.3-1.9,15.6-5.8
						c4.3-3.8,6.5-10.6,6.5-20.2V-33.8z"/>
				</g>
				<g id="g36" transform="translate(266.9619,8.9404)">
					<path id="path38" class="st1" d="M177.2-36.2c-8.2,0-14.2,1.2-18,3.6c-3.8,2.4-5.6,5.2-5.6,8.4c0,1.9,1.1,3.9,3.4,6
						c4.4-1.1,8.1-1.7,11.3-1.7h16.6c2.7,0,5.1-0.6,7.2-1.8c2.1-1.2,3.2-2.9,3.2-5.2C195.3-33.1,189.2-36.2,177.2-36.2 M164.8,35.7
						c2.3,2.2,5.5,3.3,9.6,3.3c4.1,0,7.2-1.1,9.3-3.2c2.1-2.1,3.2-4.7,3.2-7.8c0-8-4.3-12-12.8-12c-4,0-7.1,1.1-9.4,3.2
						c-2.2,2.1-3.4,4.9-3.4,8.3C161.4,30.7,162.5,33.5,164.8,35.7 M203.8-10.6c-4,3.6-9.6,5.5-16.6,5.5h-20.6
						c-3.2,0-5.5,0.7-7.1,2.1c-1.6,1.4-2.3,3-2.3,4.7c0,3.1,1.6,5.3,4.8,6.8c4.9-1.2,9.2-1.8,12.9-1.8c8.5,0,15.3,2,20.5,6.1
						c5.2,4,7.7,9.1,7.7,15.3c0,4.1-1.5,8-4.6,11.5l10,0.9l-2.2,13.3l-18.9-6.3l-0.1,0c-4.5,1-9,1.4-13.4,1.4
						c-9.6,0-16.8-2-21.5-6.1c-4.7-4.1-7.1-9-7.1-14.8c0-6.8,3.2-12.2,9.6-16.1c-7.4-3.6-11.1-8.4-11.1-14.4c0-4,2.2-7.8,6.5-11.5
						c-6.7-3.2-10.1-7.9-10.1-14.1c0-12.5,11.2-18.8,33.6-18.8c11.9,0,20.9,2.2,27,6.5c6.1,4.3,9.1,9.7,9.1,16.3
						C209.8-18.7,207.8-14.2,203.8-10.6"/>
				</g>
			</g>
		</g>
	</g>
	<g id="g40">
		<g id="g42">
			<g id="g48">
				<g id="g50">
					
						<linearGradient id="path62_1_" gradientUnits="userSpaceOnUse" x1="155.3424" y1="-266.2139" x2="156.5425" y2="-266.2139" gradientTransform="matrix(34.4761 -34.4761 -34.4761 -34.4761 -14366.6318 -3750.4717)">
						<stop  offset="0" style="stop-color:#ECF1C5"/>
						<stop  offset="0.1682" style="stop-color:#ECF1C5"/>
						<stop  offset="0.744" style="stop-color:#DBE2A1"/>
						<stop  offset="1" style="stop-color:#DBE2A1"/>
					</linearGradient>
					<path id="path62" class="st2" d="M183.6,70.1c-14-10.3-31.8-15.3-31.8-15.3l0,0c0,0-1.3-0.4-2.8-0.8l0,0
						c8-7.9,18.9-12.8,31-12.8l0,0c14.6,0,27.6,7.1,35.6,18.1l0,0c-8-2.8-19.2,3-29.9,12.4l0,0C184.5,70.6,183.6,70.1,183.6,70.1"/>
				</g>
			</g>
		</g>
	</g>
	<g id="g64">
		<g id="g66">
			<g id="g72">
				<g id="g74">
					
						<linearGradient id="path86_1_" gradientUnits="userSpaceOnUse" x1="150.2647" y1="-276.0864" x2="151.4648" y2="-276.0864" gradientTransform="matrix(-35.6545 12.9772 12.9772 35.6545 9164.9326 7972.3145)">
						<stop  offset="0" style="stop-color:#DBE2A1"/>
						<stop  offset="0.4999" style="stop-color:#B6CB6E"/>
						<stop  offset="0.744" style="stop-color:#B6CB6E"/>
						<stop  offset="1" style="stop-color:#B6CB6E"/>
					</linearGradient>
					<path id="path86" class="st3" d="M191.7,88.3c0.5-2.5,0.8-5.6,0-8.3l0,0c-1.1-3.5-4-6.5-6-8.3l0,0
						c10.8-9.4,21.9-15.2,29.9-12.4l0,0c1.6,2.1,2.9,4.4,4.1,6.8l0,0c0.1,0.2,0.2,0.4,0.3,0.6l0,0c0.2,0.4,0.4,0.8,0.5,1.2l0,0
						c0.2,0.4,0.3,0.8,0.5,1.1l0,0c0.1,0.2,0.2,0.5,0.3,0.7l0,0c0.2,0.5,0.3,0.9,0.5,1.4l0,0c0.1,0.2,0.1,0.3,0.2,0.5l0,0
						c0.2,0.5,0.3,1,0.5,1.5l0,0c0,0.1,0.1,0.2,0.1,0.3l0,0c0.5,1.8,0.9,3.7,1.2,5.6l0,0c0,0.1,0,0.3,0,0.4l0,0
						c0.1,0.8,0.2,1.6,0.2,2.4l0,0c0,0.2,0,0.5,0.1,0.7l0,0c0.1,0.9,0.1,1.9,0.1,2.8l0,0c0,0.9,0,1.8-0.1,2.7l0,0
						c0,0.3,0,0.5-0.1,0.8l0,0c0,0.6-0.1,1.3-0.2,1.9l0,0c0,0.3-0.1,0.5-0.1,0.8l0,0c-0.1,0.7-0.2,1.4-0.4,2.1l0,0
						c0,0.1,0,0.3-0.1,0.4l0,0c-0.2,0.9-0.4,1.7-0.6,2.5l0,0c-0.1,0.2-0.1,0.4-0.2,0.6l0,0c-0.2,0.6-0.4,1.3-0.6,1.9l0,0
						c-0.1,0.3-0.2,0.5-0.3,0.8l0,0c-0.2,0.6-0.4,1.2-0.7,1.8l0,0c-0.1,0.2-0.2,0.4-0.3,0.7l0,0c-0.3,0.8-0.6,1.5-1,2.2l0,0
						c-0.1,0.2-0.2,0.5-0.4,0.7l0,0c-0.2,0.5-0.5,1-0.8,1.4l0,0c-0.1,0.1-0.2,0.3-0.2,0.4l0,0C214.7,99.6,204.2,93.1,191.7,88.3"/>
				</g>
			</g>
		</g>
	</g>
	<g id="g88">
		<g id="g90">
			<g id="g96">
				<g id="g98">
					
						<linearGradient id="path110_1_" gradientUnits="userSpaceOnUse" x1="149.7098" y1="-273.3043" x2="150.9099" y2="-273.3043" gradientTransform="matrix(-44.651 37.4666 37.4666 44.651 17134.0312 6689.8564)">
						<stop  offset="0" style="stop-color:#B5CA6D"/>
						<stop  offset="0.3866" style="stop-color:#6A9F54"/>
						<stop  offset="0.5754" style="stop-color:#6A9F54"/>
						<stop  offset="1" style="stop-color:#6A9F54"/>
					</linearGradient>
					<path id="path110" class="st4" d="M180,129.3c-4.2,0-8.3-0.6-12.1-1.7l0,0c2.4-2.6,4.2-4.7,4.2-4.7l0,0c0,0,12.2-14,18.3-30.2
						l0,0c0,0,0.8-1.9,1.3-4.4l0,0c12.6,4.8,23,11.3,26.7,18.7l0,0c-0.4,0.8-0.9,1.5-1.4,2.3l0,0c-0.3,0.4-0.6,0.9-0.9,1.3l0,0
						c-0.5,0.7-1,1.4-1.6,2.1l0,0c-0.2,0.3-0.4,0.5-0.6,0.8l0,0c-0.4,0.5-0.8,1-1.3,1.5l0,0c0,0-0.1,0.1-0.1,0.1l0,0
						C204.5,123.8,192.9,129.3,180,129.3L180,129.3z"/>
				</g>
			</g>
		</g>
	</g>
	<g id="g112">
		<g id="g114">
			<g id="g120">
				<g id="g122">
					
						<radialGradient id="path134_1_" cx="151.5507" cy="-263.4803" r="1.2001" gradientTransform="matrix(36.436 0 0 -36.436 -5357.8477 -9509.3848)" gradientUnits="userSpaceOnUse">
						<stop  offset="0" style="stop-color:#3A5C7B"/>
						<stop  offset="0.1662" style="stop-color:#3A5C7B"/>
						<stop  offset="0.2001" style="stop-color:#3A5C7B"/>
						<stop  offset="1" style="stop-color:#5B89B4"/>
					</radialGradient>
					<path id="path134" class="st5" d="M167.9,127.6c-0.5-0.2-1.1-0.3-1.6-0.5l0,0c-0.1,0-0.2,0-0.2-0.1l0,0c-0.5-0.2-1-0.3-1.5-0.5
						l0,0c-0.1,0-0.1,0-0.2-0.1l0,0c-1.6-0.6-3.2-1.3-4.7-2.1l0,0c0,0,0,0-0.1,0l0,0c-0.4-0.2-0.8-0.4-1.1-0.6l0,0
						c-0.2-0.1-0.4-0.2-0.6-0.3l0,0c-0.3-0.2-0.6-0.4-1-0.6l0,0c-0.2-0.1-0.5-0.3-0.7-0.4l0,0c-0.3-0.2-0.6-0.4-0.9-0.6l0,0
						c-0.3-0.2-0.5-0.4-0.8-0.6l0,0c-0.2-0.2-0.5-0.3-0.7-0.5l0,0c-0.4-0.3-0.7-0.5-1.1-0.8l0,0c-0.1-0.1-0.3-0.2-0.5-0.3l0,0
						c-0.5-0.4-1-0.8-1.5-1.2l0,0c-0.1-0.1-0.2-0.2-0.3-0.3l0,0c-0.4-0.3-0.8-0.7-1.1-1.1l0,0c0,0-0.1-0.1-0.1-0.1l0,0
						c-8.2-8-13.4-19.2-13.4-31.6l0,0c0-4.2,0.6-8.2,1.7-12.1l0,0c0,0,0,0,0-0.1l0,0c0.8-2.8,1.9-5.5,3.2-8l0,0
						c0-0.1,0.1-0.2,0.1-0.2l0,0c0.2-0.4,0.5-0.9,0.7-1.3l0,0c0.1-0.1,0.1-0.2,0.2-0.3l0,0c0.3-0.4,0.5-0.9,0.8-1.3l0,0
						c0,0,0.1-0.1,0.1-0.1l0,0c0.8-1.3,1.7-2.6,2.7-3.8l0,0c0.1-0.2,0.2-0.3,0.4-0.5l0,0c0.3-0.3,0.5-0.6,0.8-0.9l0,0
						c0.2-0.2,0.3-0.4,0.5-0.6l0,0c0.2-0.3,0.5-0.6,0.8-0.8l0,0c0.2-0.2,0.4-0.4,0.6-0.6l0,0c0.2-0.2,0.4-0.4,0.5-0.6l0,0
						c0,0,0,0,0,0l0,0c1.6,0.4,2.8,0.8,2.8,0.8l0,0c0,0,17.9,5,31.8,15.3l0,0c0,0,0.9,0.6,2,1.6l0,0c2,1.8,5,4.8,6,8.3l0,0
						c0.8,2.7,0.5,5.9,0,8.3l0,0c-0.5,2.5-1.3,4.4-1.3,4.4l0,0c-6.1,16.2-18.3,30.2-18.3,30.2l0,0
						C172.1,122.9,170.3,125,167.9,127.6L167.9,127.6L167.9,127.6C167.9,127.6,167.9,127.6,167.9,127.6"/>
				</g>
			</g>
		</g>
	</g>
	<g id="g136">
		<g id="g138">
			<g id="g144">
				<g id="g146">
					
						<radialGradient id="path156_1_" cx="147.8654" cy="-270.0574" r="1.2001" gradientTransform="matrix(6.3168 55.4416 -32.8463 3.556 -9666.2178 -7140.374)" gradientUnits="userSpaceOnUse">
						<stop  offset="0" style="stop-color:#E6F1F7"/>
						<stop  offset="0.5266" style="stop-color:#6799CB"/>
						<stop  offset="1" style="stop-color:#6799CB"/>
					</radialGradient>
					<path id="path156" class="st6" d="M125.4,98.3c-6-20.3,6-38.8,6-38.8l0,0c0,0,17.9,5,31.8,15.3l0,0c0,0,6.4,4.4,8.1,9.9l0,0h0
						c0,0,0,0,0,0l0,0c0,0,0,0,0,0l0,0c1.6,5.5-1.4,12.7-1.4,12.7l0,0c-6.1,16.2-18.3,30.2-18.3,30.2l0,0
						C151.7,127.7,131.5,118.6,125.4,98.3"/>
				</g>
			</g>
		</g>
	</g>
	<g id="g158">
		<g>
			<defs>
				<rect id="SVGID_3_" x="40" y="-65.9" width="670" height="223.1"/>
			</defs>
			<clipPath id="SVGID_4_">
				<use xlink:href="#SVGID_3_"  style="overflow:visible;"/>
			</clipPath>
			<g id="g160" class="st7">
				<g id="g166" transform="translate(411.582,24.2085)">
					<path id="path168" class="st1" d="M206.1-33.1h0.9c0.3,0,0.8,0.1,0.8,0.6c0,0.2-0.2,0.5-0.7,0.5h-1V-33.1z M206.1-35.5h-0.9
						v4.1h1.9c0.2,0,1.6,0,1.6-1.2c0-0.8-0.6-1-0.8-1.1l0.8-1.8h-0.9l-0.7,1.6h-1V-35.5z M206.9-36.6c1.7,0,3.2,1.4,3.2,3.2
						c0,1.8-1.4,3.2-3.2,3.2c-1.7,0-3.2-1.4-3.2-3.2C203.7-35.2,205.1-36.6,206.9-36.6 M206.9-29.6c2.1,0,3.9-1.7,3.9-3.9
						c0-2.1-1.7-3.9-3.9-3.9c-2.1,0-3.9,1.7-3.9,3.9C203-31.3,204.7-29.6,206.9-29.6"/>
				</g>
			</g>
		</g>
	</g>
</g>
</svg>
