<?xml version="1.0" encoding="UTF-8" standalone="no"?>
<!-- Generator: Adobe Illustrator 20.1.0, SVG Export Plug-In . SVG Version: 6.00 Build 0)  -->

<svg
   version="1.1"
   id="Layer_1"
   x="0px"
   y="0px"
   viewBox="0 0 165 58"
   style="enable-background:new 0 0 165 58;"
   xml:space="preserve"
   sodipodi:docname="biogen.svg"
   inkscape:version="1.1.1 (3bf5ae0d25, 2021-09-20)"
   xmlns:inkscape="http://www.inkscape.org/namespaces/inkscape"
   xmlns:sodipodi="http://sodipodi.sourceforge.net/DTD/sodipodi-0.dtd"
   xmlns="http://www.w3.org/2000/svg"
   xmlns:svg="http://www.w3.org/2000/svg"><defs
   id="defs88" /><sodipodi:namedview
   id="namedview86"
   pagecolor="#ffffff"
   bordercolor="#666666"
   borderopacity="1.0"
   inkscape:pageshadow="2"
   inkscape:pageopacity="0.0"
   inkscape:pagecheckerboard="0"
   showgrid="false"
   inkscape:zoom="4.230303"
   inkscape:cx="139.35172"
   inkscape:cy="26.712034"
   inkscape:window-width="1920"
   inkscape:window-height="1019"
   inkscape:window-x="0"
   inkscape:window-y="0"
   inkscape:window-maximized="1"
   inkscape:current-layer="Layer_1" />
<style
   type="text/css"
   id="style2">
	.st0{fill:url(#SVGID_1_);}
	.st1{fill:url(#SVGID_2_);}
	.st2{fill:url(#SVGID_3_);}
	.st3{fill:url(#SVGID_4_);}
	.st4{fill:none;}
	.st5{fill:#FFFFFF;}
	.st6{fill:url(#SVGID_5_);}
</style>
<g
   id="g36">
	<linearGradient
   id="SVGID_1_"
   gradientUnits="userSpaceOnUse"
   x1="15.6521"
   y1="31.3818"
   x2="27.4839"
   y2="19.55">
		<stop
   offset="0"
   style="stop-color:#C4CA80"
   id="stop4" />
		<stop
   offset="0.5048"
   style="stop-color:#DBE08C"
   id="stop6" />
	</linearGradient>
	<path
   class="st0"
   d="M22.6,20.5c-0.4,0.3-0.7,0.5-0.7,0.5c-4.6,3.4-10.5,5-10.5,5s-0.4,0.1-0.9,0.3c2.6,2.6,6.2,4.2,10.2,4.2   c4.8,0,9.1-2.3,11.7-6C29.8,25.5,26.2,23.6,22.6,20.5z"
   id="path9" />
	<linearGradient
   id="SVGID_2_"
   gradientUnits="userSpaceOnUse"
   x1="34.4914"
   y1="9.509"
   x2="26.5228"
   y2="23.311">
		<stop
   offset="0"
   style="stop-color:#9FBC6E"
   id="stop11" />
		<stop
   offset="0.4025"
   style="stop-color:#AFCE79"
   id="stop13" />
	</linearGradient>
	<path
   class="st1"
   d="M35.2,15.1c0-0.1,0-0.2,0-0.3c0-0.2,0-0.4-0.1-0.6c0-0.1,0-0.2,0-0.3c0-0.2-0.1-0.5-0.1-0.7c0,0,0-0.1,0-0.1   c-0.1-0.3-0.1-0.6-0.2-0.8c0-0.1,0-0.1-0.1-0.2c-0.1-0.2-0.1-0.4-0.2-0.6c0-0.1-0.1-0.2-0.1-0.2c-0.1-0.2-0.1-0.4-0.2-0.6   c0-0.1-0.1-0.1-0.1-0.2c-0.1-0.2-0.2-0.5-0.3-0.7c0-0.1-0.1-0.2-0.1-0.2c-0.1-0.2-0.2-0.3-0.2-0.5c0,0-0.1-0.1-0.1-0.1   c-1.2,2.4-4.6,4.6-8.8,6.1c0.2,0.8,0.3,1.8,0,2.7c-0.3,1.1-1.3,2.1-2,2.7c3.5,3.1,7.2,5,9.8,4.1c0.5-0.7,1-1.4,1.3-2.2   c0-0.1,0.1-0.1,0.1-0.2c0.1-0.1,0.1-0.3,0.2-0.4c0.1-0.1,0.1-0.2,0.2-0.4c0-0.1,0.1-0.2,0.1-0.2c0.1-0.2,0.1-0.3,0.2-0.4   c0-0.1,0-0.1,0.1-0.2c0.1-0.2,0.1-0.3,0.2-0.5c0,0,0-0.1,0-0.1c0.2-0.6,0.3-1.2,0.4-1.8c0,0,0-0.1,0-0.1c0-0.3,0.1-0.5,0.1-0.8   c0-0.1,0-0.1,0-0.2c0-0.3,0-0.6,0-0.9C35.2,15.7,35.2,15.4,35.2,15.1z"
   id="path16" />
	<linearGradient
   id="SVGID_3_"
   gradientUnits="userSpaceOnUse"
   x1="30.4609"
   y1="12.5705"
   x2="17.2536"
   y2="1.4883">
		<stop
   offset="0"
   style="stop-color:#9EC382"
   id="stop18" />
		<stop
   offset="0.1641"
   style="stop-color:#83B06B"
   id="stop20" />
		<stop
   offset="0.3227"
   style="stop-color:#70A35A"
   id="stop22" />
		<stop
   offset="0.4324"
   style="stop-color:#699E54"
   id="stop24" />
	</linearGradient>
	<path
   class="st2"
   d="M32.9,8.1c-0.1-0.1-0.2-0.3-0.3-0.4c-0.2-0.2-0.3-0.5-0.5-0.7C32,6.9,32,6.8,31.9,6.7   c-0.1-0.2-0.3-0.3-0.4-0.5c0,0,0,0,0,0C28.8,3.3,25,1.5,20.7,1.5c-1.4,0-2.7,0.2-4,0.6c0.8,0.9,1.4,1.5,1.4,1.5s4,4.6,6,9.9   c0,0,0.3,0.6,0.4,1.4c4.1-1.6,7.6-3.7,8.8-6.1C33.2,8.6,33.1,8.3,32.9,8.1z"
   id="path27" />
	<radialGradient
   id="SVGID_4_"
   cx="15.5128"
   cy="14.171"
   r="10.7778"
   gradientUnits="userSpaceOnUse">
		<stop
   offset="0"
   style="stop-color:#496F93"
   id="stop29" />
		<stop
   offset="0.8595"
   style="stop-color:#6799CB"
   id="stop31" />
	</radialGradient>
	<path
   class="st3"
   d="M24.6,15c-0.2-0.8-0.4-1.4-0.4-1.4c-2-5.3-6-9.9-6-9.9s-0.6-0.7-1.4-1.5l0,0c0,0,0,0,0,0   c-0.2,0.1-0.3,0.1-0.5,0.2c0,0,0,0-0.1,0c-0.2,0.1-0.3,0.1-0.5,0.2c0,0,0,0-0.1,0c-0.5,0.2-1,0.4-1.5,0.7c0,0,0,0,0,0   c-0.1,0.1-0.2,0.1-0.4,0.2c-0.1,0-0.1,0.1-0.2,0.1c-0.1,0.1-0.2,0.1-0.3,0.2c-0.1,0-0.2,0.1-0.2,0.1c-0.1,0.1-0.2,0.1-0.3,0.2   c-0.1,0.1-0.2,0.1-0.3,0.2c-0.1,0.1-0.2,0.1-0.2,0.2c-0.1,0.1-0.2,0.2-0.3,0.3c0,0-0.1,0.1-0.1,0.1c-0.2,0.1-0.3,0.3-0.5,0.4   c0,0-0.1,0.1-0.1,0.1c-0.1,0.1-0.3,0.2-0.4,0.3c0,0,0,0,0,0C7.9,8.2,6.3,11.9,6.3,16c0,1.4,0.2,2.7,0.6,4c0,0,0,0,0,0   c0.3,0.9,0.6,1.8,1.1,2.6c0,0,0,0.1,0,0.1C8,22.9,8.1,23,8.2,23.1c0,0,0,0.1,0.1,0.1c0.1,0.1,0.2,0.3,0.3,0.4c0,0,0,0,0,0   c0.3,0.4,0.6,0.9,0.9,1.3c0,0.1,0.1,0.1,0.1,0.2c0.1,0.1,0.2,0.2,0.3,0.3c0.1,0.1,0.1,0.1,0.2,0.2c0.1,0.1,0.2,0.2,0.2,0.3   c0.1,0.1,0.1,0.1,0.2,0.2c0.1,0.1,0.1,0.1,0.2,0.2h0c0.5-0.1,0.9-0.3,0.9-0.3s5.9-1.7,10.5-5c0,0,0.3-0.2,0.7-0.5   c0.7-0.6,1.6-1.6,2-2.7C24.9,16.8,24.8,15.8,24.6,15z"
   id="path34" />
</g>






<path
   class="st5"
   d="M55.9,32.2c1.7-0.3,3.1-1.1,4.1-2.4c1-1.2,1.5-2.7,1.5-4.4c0-1.8-0.5-3.4-1.5-4.7c-1-1.3-2.1-2.2-3.5-2.6  c-1.3-0.4-3-0.6-5-0.6H39.6v30.6H53c3.2,0,5.6-0.8,7.1-2.4c1.5-1.6,2.3-3.6,2.3-6c0-1.9-0.6-3.5-1.7-4.9  C59.7,33.5,58.1,32.6,55.9,32.2z M44.8,21.8h6.6c1.2,0,2.3,0.3,3.2,1c0.9,0.7,1.4,1.7,1.4,3.1c0,1.3-0.4,2.3-1.2,3.1  c-0.8,0.8-1.9,1.2-3.3,1.2h-6.7V21.8z M55.5,42.3c-0.9,0.8-2.1,1.2-3.6,1.2h-7.1v-8.8H52c1.5,0,2.6,0.4,3.5,1.2  c0.9,0.8,1.3,1.9,1.3,3.2C56.9,40.4,56.4,41.5,55.5,42.3z"
   id="path50"
   style="stroke:none;stroke-opacity:1;fill:#2473bb;fill-opacity:1" />
<rect
   x="65.4"
   y="25.4"
   class="st5"
   width="5.1"
   height="22.7"
   id="rect52"
   style="stroke:none;stroke-opacity:1;fill:#2473bb;fill-opacity:1" />
<rect
   x="65.4"
   y="17.5"
   class="st5"
   width="5.1"
   height="5.3"
   id="rect54"
   style="stroke:none;stroke-opacity:1;fill:#2473bb;fill-opacity:1" />
<path
   class="st5"
   d="M84,25c-3.2,0-5.8,1.1-7.7,3.3c-1.9,2.2-2.9,5-2.9,8.4c0,3.1,0.9,5.9,2.6,8.3c1.8,2.4,4.3,3.6,7.7,3.6  c3.1,0,5.7-1.1,7.7-3.3c2-2.2,3-5.1,3-8.6c0-3.5-1-6.3-2.9-8.5C89.5,26,87,25,84,25z M83.8,44.3c-1.6,0-2.8-0.6-3.7-2  c-0.9-1.3-1.4-3.2-1.4-5.7c0-2.3,0.4-4.1,1.3-5.5c0.9-1.4,2.2-2.1,3.9-2.1c1.7,0,3,0.7,3.8,2c0.8,1.3,1.2,3.2,1.2,5.5  C89,41.8,87.3,44.3,83.8,44.3z"
   id="path56"
   style="stroke:none;stroke-opacity:1;fill:#2473bb;fill-opacity:1" />
<path
   class="st5"
   d="M128.5,25c-3.3,0-5.9,1.1-7.8,3.4c-1.9,2.2-2.9,5.1-2.9,8.5c0,3.6,1,6.5,2.9,8.6c1.9,2.1,4.4,3.2,7.6,3.2  c2.6,0,4.8-0.7,6.5-2c1.7-1.3,2.9-3,3.5-5.1l-4.6-0.6c-0.9,2.5-2.6,3.7-5.1,3.7c-1.3,0-2.4-0.3-3.2-1c-0.9-0.7-1.4-1.5-1.7-2.4  c-0.3-0.9-0.4-2.2-0.4-3.7h15.5l0-0.6c0-3.5-0.9-6.3-2.6-8.5C134.2,26.1,131.7,25,128.5,25z M123,34.1c0.2-1.8,0.7-3.1,1.7-4.1  c0.9-1,2.1-1.4,3.5-1.4c1.4,0,2.6,0.5,3.6,1.5c1,1,1.5,2.4,1.5,4H123z"
   id="path58"
   style="stroke:none;stroke-opacity:1;fill:#2473bb;fill-opacity:1" />
<path
   class="st5"
   d="M153,25c-2.9,0-5.2,1.9-6.9,5.7v-5.2h-4.7v22.6h5.1V36.4c0-2.3,0.5-4.1,1.5-5.3c1-1.2,2.2-1.7,3.5-1.7  c1,0,1.8,0.4,2.5,1.1c0.7,0.8,1,1.9,1,3.4v14.1h5.1V33.5c0-3.2-0.7-5.4-2.1-6.6C156.6,25.6,154.9,25,153,25z"
   id="path60"
   style="stroke:none;stroke-opacity:1;fill:#2473bb;fill-opacity:1" />
<path
   class="st5"
   d="M110.5,42.6h-6.8c-1,0-1.8-0.2-2.3-0.7c-0.5-0.5-0.8-1-0.8-1.5c0-1,0.5-1.8,1.6-2.2c1.6,0.4,3,0.6,4.2,0.6  c2.8,0,5-0.7,6.7-2c1.7-1.3,2.5-3,2.5-5c0-1.3-0.5-2.6-1.5-3.8l3.3-0.3l-0.7-4.4l-6.2,2.1l0,0c-1.5-0.3-2.9-0.5-4.4-0.5  c-3.2,0-5.5,0.7-7,2c-1.5,1.3-2.3,3-2.3,4.8c0,2.2,1.1,4,3.2,5.3c-2.4,1.2-3.6,2.7-3.6,4.7c0,1.3,0.7,2.6,2.1,3.8  c-2.2,1.1-3.3,2.6-3.3,4.6c0,4.1,3.7,6.1,11,6.1c3.9,0,6.8-0.7,8.8-2.1c2-1.4,3-3.2,3-5.3c0-1.8-0.7-3.3-2-4.4  C114.6,43.2,112.8,42.6,110.5,42.6z M103.1,29.2c0.7-0.7,1.8-1.1,3.1-1.1c1.3,0,2.4,0.3,3.1,1c0.7,0.7,1,1.5,1,2.5  c0,2.6-1.4,3.9-4.2,3.9c-1.3,0-2.3-0.3-3.1-1c-0.7-0.7-1.1-1.6-1.1-2.7C102,30.8,102.4,29.9,103.1,29.2z M107.2,52.8  c-2.7,0-4.6-0.4-5.9-1.2c-1.2-0.8-1.8-1.7-1.8-2.7c0-0.6,0.4-1.3,1.1-2c1.4,0.4,2.7,0.6,3.7,0.6h5.4c0.9,0,1.7,0.2,2.4,0.6  c0.7,0.4,1,0.9,1,1.7C113.1,51.7,111.1,52.8,107.2,52.8z"
   id="path62"
   style="stroke:none;stroke-opacity:1;fill:#2473bb;fill-opacity:1" />
<radialGradient
   id="SVGID_5_"
   cx="8.401"
   cy="12.2845"
   r="9.6579"
   gradientUnits="userSpaceOnUse">
	<stop
   offset="0"
   style="stop-color:#E6F2F8"
   id="stop64" />
	<stop
   offset="8.979338e-02"
   style="stop-color:#D1E3F1"
   id="stop66" />
	<stop
   offset="0.279"
   style="stop-color:#ABC9E3"
   id="stop68" />
	<stop
   offset="0.4672"
   style="stop-color:#8DB4D9"
   id="stop70" />
	<stop
   offset="0.652"
   style="stop-color:#78A5D1"
   id="stop72" />
	<stop
   offset="0.8316"
   style="stop-color:#6B9CCD"
   id="stop74" />
	<stop
   offset="1"
   style="stop-color:#6799CB"
   id="stop76" />
</radialGradient>
<path
   class="st6"
   d="M15.7,11c-0.9-2.5-2.3-4.9-3.5-6.6c-1.3-2-2.4-3.3-2.4-3.3s-6.6,3-8.6,9.6c-2,6.6,2,12.7,2,12.7s2-0.6,4.5-1.7  c1.9-0.8,4-1.9,5.9-3.3c0,0,2.1-1.4,2.6-3.2l0,0c0,0,0,0,0,0C16.6,13.4,15.7,11,15.7,11z"
   id="path79" />
<g
   id="g83"
   style="stroke:none;stroke-opacity:1;fill:#2473bb;fill-opacity:1">
	<path
   class="st5"
   d="M163.4,46c0.6,0,1.1,0.5,1.1,1.1c0,0.6-0.5,1.1-1.1,1.1c-0.6,0-1.1-0.5-1.1-1.1C162.3,46.5,162.8,46,163.4,46z    M163.4,47.9c0.5,0,0.9-0.4,0.9-0.9c0-0.5-0.4-0.9-0.9-0.9c-0.5,0-0.9,0.4-0.9,0.9C162.5,47.6,162.9,47.9,163.4,47.9z M163.2,47.6   h-0.2v-1.1h0.5c0.1,0,0.4,0,0.4,0.3c0,0.2-0.2,0.3-0.2,0.3l0.2,0.5h-0.3l-0.2-0.5h-0.3V47.6z M163.2,47h0.3c0.1,0,0.2,0,0.2-0.2   c0-0.1,0-0.2-0.2-0.2h-0.3V47z"
   id="path81"
   style="stroke:none;stroke-opacity:1;fill:#2473bb;fill-opacity:1" />
</g>
</svg>
