<?xml version="1.0" encoding="UTF-8" standalone="no"?>
<!-- Generator: Adobe Illustrator 23.0.2, SVG Export Plug-In . SVG Version: 6.00 Build 0)  -->

<svg
   xmlns:dc="http://purl.org/dc/elements/1.1/"
   xmlns:cc="http://creativecommons.org/ns#"
   xmlns:rdf="http://www.w3.org/1999/02/22-rdf-syntax-ns#"
   xmlns:svg="http://www.w3.org/2000/svg"
   xmlns="http://www.w3.org/2000/svg"
   xmlns:sodipodi="http://sodipodi.sourceforge.net/DTD/sodipodi-0.dtd"
   xmlns:inkscape="http://www.inkscape.org/namespaces/inkscape"
   version="1.1"
   x="0px"
   y="0px"
   viewBox="0 0 474 176"
   style="enable-background:new 0 0 474 176;"
   xml:space="preserve"
   id="svg254"
   sodipodi:docname="clay10_white.ca961b1.svg"
   inkscape:version="0.92.5 (2060ec1f9f, 2020-04-08)"><metadata
   id="metadata260"><rdf:RDF><cc:Work
       rdf:about=""><dc:format>image/svg+xml</dc:format><dc:type
         rdf:resource="http://purl.org/dc/dcmitype/StillImage" /><dc:title></dc:title></cc:Work></rdf:RDF></metadata><defs
   id="defs258" /><sodipodi:namedview
   pagecolor="#1066c2"
   bordercolor="#666666"
   borderopacity="1"
   objecttolerance="10"
   gridtolerance="10"
   guidetolerance="10"
   inkscape:pageopacity="1"
   inkscape:pageshadow="2"
   inkscape:window-width="1366"
   inkscape:window-height="712"
   id="namedview256"
   showgrid="false"
   inkscape:zoom="1.739423"
   inkscape:cx="331.96929"
   inkscape:cy="47.835494"
   inkscape:window-x="0"
   inkscape:window-y="0"
   inkscape:window-maximized="1"
   inkscape:current-layer="svg254" />
<style
   type="text/css"
   id="style163">
	.st0{fill:#FFFFFF;}
</style>
<g
   id="Layer_3">
</g>
<g
   id="Layer_1"
   style="fill:#ffffff;fill-opacity:1">
	<g
   id="g168"
   style="fill:#ffffff;fill-opacity:1">
		<path
   class="st0"
   d="M62,114.5C31.9,114.5,7.5,90.1,7.5,60C7.5,29.9,31.9,5.5,62,5.5c4.7,0,8.5,3.8,8.5,8.5s-3.8,8.5-8.5,8.5    c-20.7,0-37.5,16.8-37.5,37.5S41.3,97.5,62,97.5c4.7,0,8.5,3.8,8.5,8.5S66.7,114.5,62,114.5z"
   id="path166"
   style="fill:#ffffff;fill-opacity:1" />
	</g>
	<g
   id="g172"
   style="fill:#ffffff;fill-opacity:1">
		<path
   class="st0"
   d="M62,114.5C31.9,114.5,7.5,90.1,7.5,60c0-4.7,3.8-8.5,8.5-8.5s8.5,3.8,8.5,8.5c0,20.7,16.8,37.5,37.5,37.5    c4.7,0,8.5,3.8,8.5,8.5S66.7,114.5,62,114.5z"
   id="path170"
   style="fill:#ffffff;fill-opacity:1" />
	</g>
	<g
   id="g176"
   style="fill:#ffffff;fill-opacity:1">
		<path
   class="st0"
   d="M141,114.5c-30.1,0-54.5-24.4-54.5-54.5c0-4.7,3.8-8.5,8.5-8.5s8.5,3.8,8.5,8.5c0,20.7,16.8,37.5,37.5,37.5    c4.7,0,8.5,3.8,8.5,8.5S145.7,114.5,141,114.5z"
   id="path174"
   style="fill:#ffffff;fill-opacity:1" />
	</g>
	<g
   id="g180"
   style="fill:#ffffff;fill-opacity:1">
		<path
   class="st0"
   d="M245,68.5c-4.7,0-8.5-3.8-8.5-8.5c0-20.7-16.8-37.5-37.5-37.5S161.5,39.3,161.5,60c0,4.7-3.8,8.5-8.5,8.5    s-8.5-3.8-8.5-8.5c0-30.1,24.4-54.5,54.5-54.5c30.1,0,54.5,24.4,54.5,54.5C253.5,64.7,249.7,68.5,245,68.5z"
   id="path178"
   style="fill:#ffffff;fill-opacity:1" />
	</g>
	<g
   id="g184"
   style="fill:#ffffff;fill-opacity:1">
		<path
   class="st0"
   d="M153,68.5c-4.7,0-8.5-3.8-8.5-8.5c0-30.1,24.4-54.5,54.5-54.5c4.7,0,8.5,3.8,8.5,8.5s-3.8,8.5-8.5,8.5    c-20.7,0-37.5,16.8-37.5,37.5C161.5,64.7,157.7,68.5,153,68.5z"
   id="path182"
   style="fill:#ffffff;fill-opacity:1" />
	</g>
	<g
   id="g188"
   style="fill:#ffffff;fill-opacity:1">
		<path
   class="st0"
   d="M245,114.5c-30.1,0-54.5-24.4-54.5-54.5c0-4.7,3.8-8.5,8.5-8.5s8.5,3.8,8.5,8.5c0,20.7,16.8,37.5,37.5,37.5    s37.5-16.8,37.5-37.5c0-4.7,3.8-8.5,8.5-8.5s8.5,3.8,8.5,8.5C299.5,90.1,275.1,114.5,245,114.5z"
   id="path186"
   style="fill:#ffffff;fill-opacity:1" />
	</g>
	<g
   id="g192"
   style="fill:#ffffff;fill-opacity:1">
		<path
   class="st0"
   d="M245,114.5c-4.7,0-8.5-3.8-8.5-8.5s3.8-8.5,8.5-8.5c20.7,0,37.5-16.8,37.5-37.5c0-4.7,3.8-8.5,8.5-8.5    s8.5,3.8,8.5,8.5C299.5,90.1,275.1,114.5,245,114.5z"
   id="path190"
   style="fill:#ffffff;fill-opacity:1" />
	</g>
	<g
   id="g196"
   style="fill:#ffffff;fill-opacity:1">
		<path
   class="st0"
   d="M458,68.5c-4.7,0-8.5-3.8-8.5-8.5c0-20.7-16.8-37.5-37.5-37.5S374.5,39.3,374.5,60c0,4.7-3.8,8.5-8.5,8.5    s-8.5-3.8-8.5-8.5c0-30.1,24.4-54.5,54.5-54.5s54.5,24.4,54.5,54.5C466.5,64.7,462.7,68.5,458,68.5z"
   id="path194"
   style="fill:#ffffff;fill-opacity:1" />
	</g>
	<g
   id="g200"
   style="fill:#ffffff;fill-opacity:1">
		<path
   class="st0"
   d="M366,68.5c-4.7,0-8.5-3.8-8.5-8.5c0-30.1,24.4-54.5,54.5-54.5c4.7,0,8.5,3.8,8.5,8.5s-3.8,8.5-8.5,8.5    c-20.7,0-37.5,16.8-37.5,37.5C374.5,64.7,370.7,68.5,366,68.5z"
   id="path198"
   style="fill:#ffffff;fill-opacity:1" />
	</g>
	<g
   id="g204"
   style="fill:#ffffff;fill-opacity:1">
		<path
   class="st0"
   d="M412,114.5c-30.1,0-54.5-24.4-54.5-54.5c0-4.7,3.8-8.5,8.5-8.5s8.5,3.8,8.5,8.5c0,20.7,16.8,37.5,37.5,37.5    s37.5-16.8,37.5-37.5c0-4.7,3.8-8.5,8.5-8.5s8.5,3.8,8.5,8.5C466.5,90.1,442.1,114.5,412,114.5z"
   id="path202"
   style="fill:#ffffff;fill-opacity:1" />
	</g>
	<g
   id="g208"
   style="fill:#ffffff;fill-opacity:1">
		<path
   class="st0"
   d="M412,114.5c-4.7,0-8.5-3.8-8.5-8.5s3.8-8.5,8.5-8.5c20.7,0,37.5-16.8,37.5-37.5c0-4.7,3.8-8.5,8.5-8.5    s8.5,3.8,8.5,8.5C466.5,90.1,442.1,114.5,412,114.5z"
   id="path206"
   style="fill:#ffffff;fill-opacity:1" />
	</g>
	<g
   id="g212"
   style="fill:#ffffff;fill-opacity:1">
		<path
   class="st0"
   d="M330.5,114c-4.7,0-8.5-3.8-8.5-8.5v-91c0-4.7,3.8-8.5,8.5-8.5s8.5,3.8,8.5,8.5v91    C339,110.2,335.2,114,330.5,114z"
   id="path210"
   style="fill:#ffffff;fill-opacity:1" />
	</g>
	<g
   id="g216"
   style="fill:#ffffff;fill-opacity:1">
		<path
   class="st0"
   d="M330.5,69c-4.7,0-8.5-3.8-8.5-8.5v-46c0-4.7,3.8-8.5,8.5-8.5s8.5,3.8,8.5,8.5v46C339,65.2,335.2,69,330.5,69z    "
   id="path214"
   style="fill:#ffffff;fill-opacity:1" />
	</g>
	<g
   id="g220"
   style="fill:#ffffff;fill-opacity:1">
		<path
   class="st0"
   d="M458,68.5c-4.7,0-8.5-3.8-8.5-8.5c0-3-0.3-5.9-1-8.7c-1.1-4.6,1.7-9.2,6.3-10.2c4.6-1.1,9.2,1.7,10.2,6.3    c1,4.1,1.5,8.4,1.5,12.7C466.5,64.7,462.7,68.5,458,68.5z"
   id="path218"
   style="fill:#ffffff;fill-opacity:1" />
	</g>
</g>
<g
   id="Layer_2"
   style="fill:#ffffff;fill-opacity:1">
	<g
   id="g251"
   style="fill:#ffffff;fill-opacity:1">
		<path
   class="st0"
   d="M19,169c-6.3,0-11.5-5.2-11.5-11.5s5.1-11.5,11.5-11.5c2.8,0,5.6,1,7.7,2.9c0.8,0.7,0.8,1.8,0.1,2.6    c-0.7,0.7-1.8,0.8-2.5,0.1c-1.5-1.3-3.3-2-5.3-2c-4.3,0-7.8,3.5-7.8,7.8s3.5,7.8,7.8,7.8c2,0,3.9-0.7,5.3-2.1    c0.7-0.7,1.9-0.6,2.6,0.1c0.7,0.7,0.6,1.9-0.1,2.6C24.7,167.9,21.9,169,19,169z"
   id="path223"
   style="fill:#ffffff;fill-opacity:1" />
		<path
   class="st0"
   d="M45.4,169.1c-0.5,0-0.9-0.2-1.2-0.5c-0.3-0.3-0.5-0.8-0.5-1.3v-19.4c0-1,0.8-1.8,1.8-1.8c1,0,1.8,0.8,1.8,1.8    v17.6l8.9-0.1h0c1,0,1.8,0.8,1.8,1.8c0,1-0.8,1.8-1.8,1.8L45.4,169.1L45.4,169.1z"
   id="path225"
   style="fill:#ffffff;fill-opacity:1" />
		<path
   class="st0"
   d="M94.5,168.9c-0.9,0.5-2,0.1-2.4-0.8l-2.4-4.7h0H79.4c-0.1,0-0.2,0-0.2,0l-2.2,4.7c-0.3,0.7-1,1.1-1.6,1.1    c-0.3,0-0.5-0.1-0.8-0.2c-0.9-0.4-1.3-1.5-0.9-2.4l8.8-19.1c0.3-0.6,0.9-1,1.6-1.1h0c0.7,0,1.3,0.4,1.6,1l9.5,19.1    C95.8,167.4,95.5,168.5,94.5,168.9z M88,159.8l-3.7-7.4l-3.4,7.4H88z"
   id="path227"
   style="fill:#ffffff;fill-opacity:1" />
		<path
   class="st0"
   d="M127.1,149.5l-7.6,9.6v8.1c0,1-0.8,1.8-1.8,1.8s-1.8-0.8-1.8-1.8v-8.1l-7.5-9.9c-0.6-0.8-0.5-1.9,0.3-2.5    c0.8-0.6,1.9-0.4,2.5,0.4l6.4,8.5l6.5-8.3c0.6-0.8,1.8-0.9,2.5-0.3C127.6,147.6,127.7,148.8,127.1,149.5z"
   id="path229"
   style="fill:#ffffff;fill-opacity:1" />
		<path
   class="st0"
   d="M152,147.9v19.2c0,1-0.8,1.9-1.9,1.9s-1.9-0.8-1.9-1.9v-15.6c-0.7,0.3-1.4,0.4-2.1,0.4c-1,0-1.9-0.8-1.9-1.9    s0.8-1.9,1.9-1.9c0.7,0,1.8-0.5,2.4-1.4c0,0,0,0,0,0c0,0,0-0.1,0.1-0.1c0,0,0-0.1,0.1-0.1l0.1-0.1c0,0,0,0,0.1-0.1c0,0,0,0,0.1,0    c0,0,0.1-0.1,0.1-0.1l0.1-0.1c0,0,0.1,0,0.1-0.1c0,0,0.1,0,0.1,0c0,0,0,0,0.1,0c0,0,0.1,0,0.1,0c0,0,0.1,0,0.1,0c0,0,0.1,0,0.1,0    s0.1,0,0.1,0h0.1c0,0,0.1,0,0.1,0h0.1c0.1,0,0.1,0,0.1,0h0h0h0.1c0,0,0.1,0,0.1,0s0.1,0,0.1,0h0.1c0,0,0.1,0,0.1,0s0.1,0,0.1,0    s0.1,0,0.1,0c0,0,0.1,0,0.1,0s0.1,0,0.1,0l0.1,0.1c0,0,0,0,0.1,0c0,0,0.1,0.1,0.1,0.1c0,0,0,0,0,0c0,0,0,0,0,0l0.1,0.1    c0,0,0,0,0.1,0.1l0.1,0.1c0,0,0,0.1,0.1,0.1c0,0,0,0,0.1,0c0,0,0,0.1,0.1,0.1c0,0,0,0.1,0,0.1l0.1,0.1c0,0,0,0.1,0,0.1    c0,0,0,0.1,0,0.1l0.1,0.1c0,0,0,0,0,0.1v0.1c0,0,0,0.1,0,0.1s0,0.1,0,0.1v0.1c0,0,0,0.1,0,0.1S152,147.8,152,147.9L152,147.9z"
   id="path231"
   style="fill:#ffffff;fill-opacity:1" />
		<path
   class="st0"
   d="M180.7,169c-6.3,0-11.5-5.1-11.5-11.5c0-6.3,5.1-11.5,11.5-11.5c6.3,0,11.5,5.1,11.5,11.5    C192.1,163.8,187,169,180.7,169z M180.7,149.7c-4.3,0-7.8,3.5-7.8,7.8c0,4.3,3.5,7.8,7.8,7.8c4.3,0,7.8-3.5,7.8-7.8    C188.5,153.2,185,149.7,180.7,149.7z"
   id="path233"
   style="fill:#ffffff;fill-opacity:1" />
		<path
   class="st0"
   d="M241.8,169c-6.3,0-11.5-5.2-11.5-11.5s5.1-11.5,11.5-11.5c2.8,0,5.6,1,7.7,2.9c0.8,0.7,0.8,1.8,0.1,2.6    c-0.7,0.7-1.8,0.8-2.5,0.1c-1.5-1.3-3.3-2-5.3-2c-4.3,0-7.8,3.5-7.8,7.8s3.5,7.8,7.8,7.8c2,0,3.9-0.7,5.3-2.1    c0.7-0.7,1.9-0.6,2.6,0.1c0.7,0.7,0.6,1.9-0.1,2.6C247.5,167.9,244.7,169,241.8,169z"
   id="path235"
   style="fill:#ffffff;fill-opacity:1" />
		<path
   class="st0"
   d="M280.6,168.8c-0.3,0.2-0.5,0.2-0.8,0.2c-0.6,0-1.3-0.3-1.6-1l-4.4-8.4h-3.8v7.6c0,1-0.8,1.8-1.8,1.8    c-1,0-1.8-0.8-1.8-1.8V148c0-0.9,0.8-1.7,1.7-1.8v-0.2h6.9c3.6,0,6.6,3.2,6.6,6.9c0,2.6-1.7,5-4.1,6l3.9,7.4    C281.8,167.2,281.5,168.3,280.6,168.8z M269.9,156h4.8c1.8,0,3.3-1.4,3.3-3c0-1.8-1.5-3.4-3.1-3.4h-5V156z"
   id="path237"
   style="fill:#ffffff;fill-opacity:1" />
		<path
   class="st0"
   d="M301.5,159.4v6h8.6c1,0,1.8,0.8,1.8,1.8s-0.8,1.8-1.8,1.8h-10.5c-1,0-1.8-0.8-1.8-1.8v-19.3    c0-1,0.8-1.8,1.8-1.8h10.5c1,0,1.8,0.8,1.8,1.8s-0.8,1.8-1.8,1.8h-8.6v6.1h8.6c1,0,1.8,0.8,1.8,1.8c0,1-0.8,1.8-1.8,1.8H301.5z"
   id="path239"
   style="fill:#ffffff;fill-opacity:1" />
		<path
   class="st0"
   d="M348.3,168.9c-0.9,0.5-2,0.1-2.4-0.8l-2.4-4.7h0h-10.3c-0.1,0-0.2,0-0.2,0l-2.2,4.7c-0.3,0.7-1,1.1-1.6,1.1    c-0.3,0-0.5-0.1-0.8-0.2c-0.9-0.4-1.3-1.5-0.9-2.4l8.8-19.1c0.3-0.6,0.9-1,1.6-1.1h0c0.7,0,1.3,0.4,1.6,1l9.5,19.1    C349.6,167.4,349.2,168.5,348.3,168.9z M341.7,159.8l-3.7-7.4l-3.4,7.4H341.7z"
   id="path241"
   style="fill:#ffffff;fill-opacity:1" />
		<path
   class="st0"
   d="M378.9,147.9c0,1-0.8,1.8-1.8,1.8h-5.2v17.4c0,1-0.8,1.8-1.8,1.8c-1,0-1.8-0.8-1.8-1.8v-17.4h-5.2    c-1,0-1.8-0.8-1.8-1.8c0-1,0.8-1.8,1.8-1.8h14C378.1,146.1,378.9,146.9,378.9,147.9z"
   id="path243"
   style="fill:#ffffff;fill-opacity:1" />
		<path
   class="st0"
   d="M397.3,169c-1,0-1.8-0.8-1.8-1.8v-19.2c0-1,0.8-1.8,1.8-1.8c1,0,1.8,0.8,1.8,1.8v19.2    C399.2,168.1,398.3,169,397.3,169z"
   id="path245"
   style="fill:#ffffff;fill-opacity:1" />
		<path
   class="st0"
   d="M435.9,148.9l-8.2,19v0c0,0.1-0.1,0.2-0.1,0.2v0c0,0.1-0.1,0.1-0.2,0.2c0,0,0,0,0,0c0,0.1-0.1,0.1-0.2,0.2v0    c-0.1,0.1-0.1,0.1-0.2,0.1c0,0-0.1,0-0.1,0.1c-0.1,0-0.1,0.1-0.2,0.1c0,0,0,0,0,0l0,0c-0.1,0-0.1,0-0.2,0.1h-0.1    c-0.1,0-0.1,0-0.2,0.1h-0.1c-0.1,0-0.2,0-0.2,0l-0.2,0c0,0-0.1,0-0.1,0c-0.1,0-0.2,0-0.2-0.1h0c-0.1,0-0.1,0-0.2-0.1v0    c0,0,0,0-0.1,0c-0.1,0-0.1,0-0.2-0.1l-0.1-0.1c-0.1,0-0.1-0.1-0.2-0.1l0,0c0,0-0.1-0.1-0.2-0.2c0,0,0,0,0,0    c-0.1-0.1-0.1-0.1-0.1-0.2l0,0c0-0.1-0.1-0.2-0.1-0.2c0,0,0,0,0,0l-8.2-19c-0.4-0.9,0-2,1-2.4c0.9-0.4,2,0,2.4,0.9l6.6,15.2    l6.6-15.2c0.4-0.9,1.5-1.3,2.4-0.9C435.9,146.9,436.3,148,435.9,148.9z"
   id="path247"
   style="fill:#ffffff;fill-opacity:1" />
		<path
   class="st0"
   d="M455.5,159.4v6h8.6c1,0,1.8,0.8,1.8,1.8s-0.8,1.8-1.8,1.8h-10.5c-1,0-1.8-0.8-1.8-1.8v-19.3    c0-1,0.8-1.8,1.8-1.8h10.5c1,0,1.8,0.8,1.8,1.8s-0.8,1.8-1.8,1.8h-8.6v6.1h8.6c1,0,1.8,0.8,1.8,1.8c0,1-0.8,1.8-1.8,1.8H455.5z"
   id="path249"
   style="fill:#ffffff;fill-opacity:1" />
	</g>
</g>
</svg>