<?xml version="1.0" encoding="UTF-8" standalone="no"?>
<svg
   class="header__logo-image--default"
   viewBox="0 0 1037 513"
   version="1.1"
   id="svg16"
   sodipodi:docname="qbio.svg"
   inkscape:version="1.1.1 (3bf5ae0d25, 2021-09-20)"
   xmlns:inkscape="http://www.inkscape.org/namespaces/inkscape"
   xmlns:sodipodi="http://sodipodi.sourceforge.net/DTD/sodipodi-0.dtd"
   xmlns="http://www.w3.org/2000/svg"
   xmlns:svg="http://www.w3.org/2000/svg">
  <defs
     id="defs20" />
  <sodipodi:namedview
     id="namedview18"
     pagecolor="#ffffff"
     bordercolor="#666666"
     borderopacity="1.0"
     inkscape:pageshadow="2"
     inkscape:pageopacity="0.0"
     inkscape:pagecheckerboard="0"
     showgrid="false"
     inkscape:zoom="1.3461909"
     inkscape:cx="518.5"
     inkscape:cy="256.27865"
     inkscape:window-width="1920"
     inkscape:window-height="1019"
     inkscape:window-x="1920"
     inkscape:window-y="0"
     inkscape:window-maximized="1"
     inkscape:current-layer="svg16" />
  <g
     fill="none"
     fill-rule="evenodd"
     id="g14">
    <g
       fill="#0a0a0a"
       fill-rule="nonzero"
       transform="translate(577 84)"
       id="g10">
      <path
         d="m366 279.6c-51.693853 0-93.6-41.906147-93.6-93.6s41.906147-93.6 93.6-93.6 93.6 41.906147 93.6 93.6c-.060615 51.668724-41.931276 93.539385-93.6 93.6zm0-156c-25.238444 0-47.991748 15.203272-57.650083 38.520554-9.658334 23.317282-4.319655 50.156634 13.52662 68.002909s44.685627 23.184954 68.002909 13.52662c23.317282-9.658335 38.520554-32.411639 38.520554-57.650083-.038577-34.446577-27.953423-62.361423-62.4-62.4z"
         id="path2" />
      <path
         d="m216.5 102h31v170h-31z"
         id="path4" />
      <path
         d="m231.94 16.13c-13.21497.0662973-23.876699 10.8279862-23.819903 24.0429993.05725 13.2150132 10.811454 23.8842919 24.026504 23.8367028 13.21505-.0479084 23.891873-10.7946219 23.853503-24.0097021v-.08c-.044183-13.2235813-10.776449-23.92-24.000104-23.92"
         id="path6" />
      <path
         d="m94 92.4c-23.079203-.0083803-45.3413902 8.543036-62.48 24v-116.4h-31v182.34c-.05 1.22-.08 2.43-.08 3.66 0 37.861305 22.8092417 71.99379 57.7900757 86.478944 34.9808339 14.485155 75.2429993 6.469802 102.0092623-20.307904 26.766264-26.777707 34.764406-67.043295 20.2643-102.017934-14.500105-34.974639-48.642336-57.769286-86.503638-57.753106zm0 156c-34.4625684 0-62.4-27.937432-62.4-62.4s27.9374316-62.4 62.4-62.4c34.462568 0 62.4 27.937432 62.4 62.4-.038577 34.446577-27.953423 62.361423-62.4 62.4z"
         id="path8" />
    </g>
    <path
       d="m448.83 384.35c-35.230858.187804-63.647259 28.884622-63.489763 64.115625.15881 35.231004 28.831703 63.671546 64.062827 63.543477 35.231124-.128936 63.695788-28.777882 63.597193-64.009102v-.23c-.077499-35.276994-28.723214-63.819763-64.000257-63.770065h-.12m-224-384.00000977c123.66-.09992523 224.02 100.12007477 224.120075 223.83007477.099925 123.71-100.120075 224.07-223.830075 224.17h-.1c-123.62-.08-223.86-100.2-224.07032906-223.83-.20967094-123.63 100.12032906-224.07 223.83032906-224.17007477m140.17 224.00007477c0 77.319865-62.680135 140-140 140s-140-62.680135-140-140 62.680135-140 140-140 140 62.680135 140 140z"
       fill="#0869e9"
       id="path12" />
  </g>
</svg>
