<?xml version="1.0" encoding="utf-8"?>
<!-- Generator: Adobe Illustrator 23.1.1, SVG Export Plug-In . SVG Version: 6.00 Build 0)  -->
<svg version="1.1"
	 id="svg2" xmlns:cc="http://creativecommons.org/ns#" xmlns:dc="http://purl.org/dc/elements/1.1/" xmlns:inkscape="http://www.inkscape.org/namespaces/inkscape" xmlns:rdf="http://www.w3.org/1999/02/22-rdf-syntax-ns#" xmlns:sodipodi="http://sodipodi.sourceforge.net/DTD/sodipodi-0.dtd" xmlns:svg="http://www.w3.org/2000/svg"
	 xmlns="http://www.w3.org/2000/svg" xmlns:xlink="http://www.w3.org/1999/xlink" x="0px" y="0px" viewBox="0 0 2048 173"
	 style="enable-background:new 0 0 2048 173;" xml:space="preserve">
<style type="text/css">
	.st0{fill:#FFFFFF;}
	.st1{fill:#5E6061;}
	.st2{fill:#009080;}
</style>
<a xlink:href="https://esmrmb.org" >
	<rect x="1290" y="44.2" class="st0" width="214.7" height="95.8"/>
</a>
<sodipodi:namedview  bordercolor="#666666" borderopacity="1" gridtolerance="10" guidetolerance="10" id="namedview69" inkscape:current-layer="svg2" inkscape:cx="969.7635" inkscape:cy="279.09754" inkscape:pageopacity="0" inkscape:pageshadow="2" inkscape:window-height="1019" inkscape:window-maximized="1" inkscape:window-width="1920" inkscape:window-x="0" inkscape:window-y="0" inkscape:zoom="0.63343788" objecttolerance="10" pagecolor="#ffffff" showgrid="false">
	</sodipodi:namedview>
<g id="g10" transform="matrix(0.72470138,0,0,-0.72470138,1390.7888,154.12791)">
	<g id="g12" transform="scale(0.1)">
		<path id="path14" class="st1" d="M910.2,1517.2c-263.7,0-491.9-155.2-597.8-379.2h44.1c102.9,201.4,312.5,339.5,553.8,339.5
			c342.7,0,621.5-278.8,621.5-621.5S1253,234.6,910.3,234.6c-241.2,0-450.9,138.2-553.8,339.5h-44.1
			c106-223.9,334.1-379.2,597.8-379.2c364.5,0,661.1,296.6,661.1,661.1C1571.3,1220.6,1274.8,1517.2,910.2,1517.2"/>
		<path id="path16" class="st1" d="M-1181.2,707.4h-36.4v48.2h35.9v-5.7h-29.3v-14.8h27v-5.7h-27v-16.1h29.8V707.4"/>
		<path id="path18" class="st1" d="M-1152.4,707.4v5.1l-0.2,0.2c-2.5-4.1-5.7-6.2-11.4-6.2c-5.3,0-11.6,2.5-11.6,10.8v25.2h6.1
			v-23.3c0-5.7,3-7.7,7-7.7c7.6,0,9.9,6.5,9.9,11.6v19.3h6.1v-35.1h-5.9"/>
		<path id="path20" class="st1" d="M-1129.9,707.4h-6.1v35.1h5.7v-5.8h0.2c2.4,4.1,5.6,6.9,10.1,6.9c0.7,0,1.1-0.1,1.6-0.2v-6.1
			h-2.3c-5.7,0-9.2-4.3-9.2-9.4L-1129.9,707.4"/>
		<path id="path22" class="st1" d="M-1101.1,711.6c8.7,0,10.4,8.7,10.4,13.4s-1.8,13.4-10.4,13.4c-8.7,0-10.4-8.7-10.4-13.4
			S-1109.8,711.6-1101.1,711.6z M-1101.1,743.6c11.5,0,16.7-9.5,16.7-18.5c0-9.1-5.3-18.5-16.7-18.5c-11.4,0-16.7,9.5-16.7,18.5
			S-1112.6,743.6-1101.1,743.6"/>
		<path id="path24" class="st1" d="M-1061.6,711.5c6.6,0,9.7,5.8,9.7,13.6c0,4.5-0.5,13.2-9.8,13.2c-8.7,0-9.7-9.2-9.7-14.9
			C-1071.5,714-1065.5,711.5-1061.6,711.5z M-1077.2,742.5h5.7v-4.9h0.2c1.5,2,4.2,6,10.8,6c9.5,0,15-7.7,15-17.5
			c0-8.4-3.6-19.6-15.8-19.6c-4.8,0-8,2.2-9.5,4.7h-0.2v-17.5h-6.1L-1077.2,742.5"/>
		<path id="path26" class="st1" d="M-1013,727.8c-0.3,5.4-2.7,10.4-10,10.4c-5.6,0-9.9-5-9.9-10.4H-1013z M-1007.3,718.4
			c-0.2-1.7-1.9-6.6-6.4-9.6c-1.6-1.1-4-2.4-9.8-2.4c-10.1,0-16.1,7.4-16.1,17.5c0,10.8,5.3,19.5,17.2,19.5c10.3,0,15.4-8,15.4-20.5
			h-26.3c0-7.3,3.5-11.6,10.4-11.6c5.7,0,9.1,4.3,9.3,6.9L-1007.3,718.4"/>
		<path id="path28" class="st1" d="M-976.8,725.4c-1-0.7-2.5-1.3-9.9-2.2c-2.9-0.4-7.7-1.3-7.7-5.7c0-3.8,2-6.1,6.5-6.1
			c5.7,0,11.2,3.6,11.2,8.2L-976.8,725.4L-976.8,725.4z M-999,731.8c0.2,8.4,6,11.6,14.9,11.6c2.9,0,13.3-0.8,13.3-9.8v-20.2
			c0-1.5,0.7-2.1,2-2.1c0.6,0,1.3,0.2,2,0.2v-4.3c-1.1-0.2-1.9-0.6-3.3-0.6c-5.3,0-6.1,2.7-6.4,5.3c-2.3-2.5-6-5.7-13-5.7
			c-6.6,0-11.2,4.1-11.2,10.1c0,2.9,0.9,9.8,10.9,11l9.9,1.2c1.5,0.2,3.2,0.6,3.2,4.1c0,3.7-2.7,5.7-8.4,5.7c-6.9,0-7.8-4.1-8.2-6.8
			L-999,731.8"/>
		<path id="path30" class="st1" d="M-930.5,707.4h-6.1V729c0,6.1-1.8,9.2-7.7,9.2c-3.4,0-9.5-2.2-9.5-11.6v-19.1h-6.1v35.1h5.7v-4.9
			h0.2c1.3,1.9,4.7,6,10.8,6c5.6,0,12.5-2.2,12.5-12.2L-930.5,707.4"/>
		<path id="path32" class="st1" d="M-869.2,741.5c-0.3,7.4-6.6,9.8-12.2,9.8c-4.2,0-11.2-1.1-11.2-8.5c0-4.1,3-5.4,5.8-6.1l14.1-3.2
			c6.4-1.5,11.2-5.3,11.2-12.9c0-11.4-10.8-14.6-19.3-14.6c-9.1,0-12.7,2.7-14.9,4.6c-4.2,3.7-5,7.7-5,12.2h6.2
			c0-8.7,7.3-11.2,13.6-11.2c4.9,0,12.9,1.2,12.9,8.1c0,5-2.4,6.6-10.5,8.5l-10.1,2.3c-3.2,0.7-10.5,2.9-10.5,11.3
			c0,7.5,5,14.9,17,14.9c17.2,0,18.9-10,19.2-15.4L-869.2,741.5"/>
		<path id="path34" class="st1" d="M-838.1,711.6c8.7,0,10.4,8.7,10.4,13.4s-1.8,13.4-10.4,13.4c-8.7,0-10.4-8.7-10.4-13.4
			S-846.7,711.6-838.1,711.6z M-838.1,743.6c11.5,0,16.7-9.5,16.7-18.5c0-9.1-5.3-18.5-16.7-18.5s-16.7,9.5-16.7,18.5
			S-849.6,743.6-838.1,743.6"/>
		<path id="path36" class="st1" d="M-790.2,730.7c-0.7,4.7-3.5,7.5-8.5,7.5c-7.5,0-9.9-7-9.9-13.2c0-6.1,1.5-13.5,9.8-13.5
			c4,0,7.5,3,8.6,8.3h5.8c-0.6-5.6-4.1-13.4-14.6-13.4c-10.1,0-16.1,7.4-16.1,17.5c0,10.8,5.3,19.5,17.2,19.5
			c9.4,0,13-6.7,13.4-12.9L-790.2,730.7"/>
		<path id="path38" class="st1" d="M-771,707.4h-6.1v35.1h6.1V707.4z M-777,748.9v6.7h6.1v-6.7H-777"/>
		<path id="path40" class="st1" d="M-734.1,727.8c-0.3,5.4-2.7,10.4-10,10.4c-5.6,0-9.9-5-9.9-10.4H-734.1z M-728.4,718.4
			c-0.2-1.7-1.9-6.6-6.4-9.6c-1.6-1.1-4-2.4-9.8-2.4c-10.1,0-16.1,7.4-16.1,17.5c0,10.8,5.3,19.5,17.2,19.5c10.3,0,15.4-8,15.4-20.5
			h-26.3c0-7.3,3.5-11.6,10.4-11.6c5.7,0,9.1,4.3,9.3,6.9L-728.4,718.4"/>
		<path id="path42" class="st1" d="M-711.4,737.7v-22.8c0-2.7,2.4-2.7,3.6-2.7h2.1v-4.6c-2.2-0.2-3.9-0.5-4.5-0.5
			c-6,0-7.3,3.3-7.3,7.5v23.1h-4.9v4.9h4.9v9.8h6.1v-9.8h5.7v-4.9H-711.4"/>
		<path id="path44" class="st1" d="M-676,742.5h6.6c-4.2-11.5-8.3-23-12.9-34.4c-5.7-14.2-6.3-15-14.1-15c-0.9,0-1.6,0.2-2.6,0.6
			v5.3c0.7-0.2,2-0.6,3.6-0.6c3.2,0,3.5,0.9,6.4,8.1l-13.3,36h6.9l9.5-28.5h0.2L-676,742.5"/>
		<path id="path46" class="st1" d="M-640.9,737.7v-30.2h-6.1v30.2h-4.9v4.9h4.9v6.1c0,5.3,3.5,7.7,9.4,7.7c0.9,0,1.8-0.1,2.7-0.2
			v-5.3c-0.7,0.1-1.7,0.2-2.5,0.2c-2.6,0-3.6-1.3-3.6-4.1v-4.4h6.1v-4.9H-640.9"/>
		<path id="path48" class="st1" d="M-613.7,711.6c8.7,0,10.4,8.7,10.4,13.4s-1.8,13.4-10.4,13.4c-8.7,0-10.4-8.7-10.4-13.4
			S-622.4,711.6-613.7,711.6z M-613.7,743.6c11.5,0,16.7-9.5,16.7-18.5c0-9.1-5.3-18.5-16.7-18.5c-11.5,0-16.7,9.5-16.7,18.5
			C-630.5,734.1-625.2,743.6-613.7,743.6"/>
		<path id="path50" class="st1" d="M-581.5,707.4h-6.1v35.1h5.7v-5.8h0.2c2.4,4.1,5.6,6.9,10.1,6.9c0.7,0,1.1-0.1,1.6-0.2v-6.1h-2.3
			c-5.7,0-9.2-4.3-9.2-9.4V707.4"/>
		<path id="path52" class="st1" d="M-506.9,707.4v28.5c0,1.4,0.2,7.5,0.2,12h-0.2l-13.9-40.4h-6.6l-13.9,40.3h-0.2
			c0-4.4,0.2-10.5,0.2-12v-28.5h-6.5v48.2h9.5l14.1-40.7h0.2l14,40.7h9.5v-48.2L-506.9,707.4"/>
		<path id="path54" class="st1" d="M-466.4,725.4c-1-0.7-2.5-1.3-9.9-2.2c-2.9-0.4-7.7-1.3-7.7-5.7c0-3.8,2-6.1,6.5-6.1
			c5.7,0,11.2,3.6,11.2,8.2L-466.4,725.4L-466.4,725.4z M-488.5,731.8c0.2,8.4,6,11.6,14.9,11.6c2.9,0,13.3-0.8,13.3-9.8v-20.2
			c0-1.5,0.7-2.1,2-2.1c0.6,0,1.3,0.2,2,0.2v-4.3c-1.1-0.2-1.9-0.6-3.3-0.6c-5.3,0-6.2,2.7-6.4,5.3c-2.3-2.5-6-5.7-13-5.7
			c-6.6,0-11.2,4.1-11.2,10.1c0,2.9,0.9,9.8,10.9,11l9.9,1.2c1.5,0.2,3.2,0.6,3.2,4.1c0,3.7-2.7,5.7-8.4,5.7c-6.9,0-7.8-4.1-8.2-6.8
			L-488.5,731.8"/>
		<path id="path56" class="st1" d="M-434,711.5c3.9,0,9.9,2.5,9.9,11.8c0,5.7-1,14.9-9.7,14.9c-9.4,0-9.8-8.7-9.8-13.2
			C-443.7,717.4-440.6,711.5-434,711.5z M-418.4,710.3c0-5-0.1-17.6-16.7-17.6c-4.3,0-12.6,1.1-13.7,10.4h6.1
			c1.1-5.6,6.6-5.6,8.1-5.6c10.4,0,10.3,8.2,10.3,12.4v1.5h-0.2v-0.2c-1.6-2.5-4.8-4.7-9.5-4.7c-12.2,0-15.8,11.2-15.8,19.6
			c0,9.9,5.4,17.5,15,17.5c6.5,0,9.3-4,10.8-6h0.2v4.9h5.7v-32.2"/>
		<path id="path58" class="st1" d="M-379,707.4h-6.1V729c0,6.1-1.8,9.2-7.7,9.2c-3.5,0-9.5-2.2-9.5-11.6v-19.1h-6.1v35.1h5.7v-4.9
			h0.2c1.3,1.9,4.7,6,10.8,6c5.6,0,12.6-2.2,12.6-12.2L-379,707.4"/>
		<path id="path60" class="st1" d="M-343.4,727.8c-0.3,5.4-2.7,10.4-10,10.4c-5.6,0-9.9-5-9.9-10.4H-343.4z M-337.7,718.4
			c-0.2-1.7-1.9-6.6-6.4-9.6c-1.6-1.1-4-2.4-9.8-2.4c-10.1,0-16.1,7.4-16.1,17.5c0,10.8,5.3,19.5,17.2,19.5c10.3,0,15.4-8,15.4-20.5
			h-26.3c0-7.3,3.5-11.6,10.4-11.6c5.7,0,9.1,4.3,9.3,6.9L-337.7,718.4"/>
		<path id="path62" class="st1" d="M-320.7,737.7v-22.8c0-2.7,2.4-2.7,3.6-2.7h2.1v-4.6c-2.2-0.2-3.9-0.5-4.5-0.5
			c-6,0-7.3,3.3-7.3,7.5v23.1h-4.9v4.9h4.9v9.8h6.1v-9.8h5.7v-4.9H-320.7"/>
		<path id="path64" class="st1" d="M-301.9,707.4h-6.1v35.1h6.1V707.4z M-308,748.9v6.7h6.1v-6.7H-308"/>
		<path id="path66" class="st1" d="M-265.6,730.7c-0.7,4.7-3.5,7.5-8.5,7.5c-7.5,0-9.9-7-9.9-13.2c0-6.1,1.5-13.5,9.9-13.5
			c4,0,7.5,3,8.6,8.3h5.8c-0.6-5.6-4.1-13.4-14.6-13.4c-10.1,0-16.1,7.4-16.1,17.5c0,10.8,5.3,19.5,17.2,19.5
			c9.4,0,13-6.7,13.4-12.9L-265.6,730.7"/>
		<path id="path68" class="st1" d="M-229.8,733.7h15.4c4.9,0,10,1.2,10,8.3c0,7.4-5.6,8.1-8.9,8.1h-16.6v-16.4H-229.8z
			 M-229.8,707.4h-6.6v48.2h22.8c8.1,0,16.2-2.7,16.2-12.9c0-7.1-3.7-9.7-6.9-11.6c2.8-1.1,5.7-2.3,5.9-9.1l0.4-8.7
			c0.1-2.7,0.4-3.7,2.5-4.9v-1.1h-8.2c-1,3-1.1,10.3-1.1,12c0,4-0.8,8.6-8.8,8.6h-16.2L-229.8,707.4"/>
		<path id="path70" class="st1" d="M-165,727.8c-0.3,5.4-2.7,10.4-10,10.4c-5.6,0-9.9-5-9.9-10.4H-165z M-159.2,718.4
			c-0.2-1.7-1.9-6.6-6.4-9.6c-1.6-1.1-4-2.4-9.8-2.4c-10.1,0-16.1,7.4-16.1,17.5c0,10.8,5.3,19.5,17.2,19.5c10.3,0,15.4-8,15.4-20.5
			h-26.3c0-7.3,3.5-11.6,10.4-11.6c5.7,0,9.1,4.3,9.3,6.9L-159.2,718.4"/>
		<path id="path72" class="st1" d="M-131,732.5c-0.1,2.2-0.9,5.9-8.5,5.9c-1.9,0-7.1-0.6-7.1-4.9c0-2.9,1.9-3.6,6.5-4.7l6.1-1.5
			c7.5-1.8,10.1-4.5,10.1-9.3c0-7.3-6.1-11.6-14.2-11.6c-14.2,0-15.3,8.1-15.4,12.3h5.8c0.2-2.7,1.1-7.2,9.5-7.2
			c4.4,0,8.2,1.7,8.2,5.6c0,2.8-2,3.7-7.1,5l-7,1.7c-5,1.2-8.3,3.7-8.3,8.5c0,7.7,6.5,11.2,13.6,11.2c12.9,0,13.7-9.2,13.7-11H-131"
			/>
		<path id="path74" class="st1" d="M-104,711.6c8.7,0,10.4,8.7,10.4,13.4s-1.8,13.4-10.4,13.4c-8.7,0-10.4-8.7-10.4-13.4
			S-112.7,711.6-104,711.6z M-104,743.6c11.5,0,16.7-9.5,16.7-18.5c0-9.1-5.2-18.5-16.7-18.5s-16.7,9.5-16.7,18.5
			S-115.4,743.6-104,743.6"/>
		<path id="path76" class="st1" d="M-51.1,707.4h-6.1V729c0,6.1-1.8,9.2-7.7,9.2c-3.4,0-9.5-2.2-9.5-11.6v-19.1h-6.1v35.1h5.7v-4.9
			h0.2c1.3,1.9,4.7,6,10.8,6c5.6,0,12.5-2.2,12.5-12.2L-51.1,707.4"/>
		<path id="path78" class="st1" d="M-20,725.4c-1-0.7-2.5-1.3-9.9-2.2c-2.9-0.4-7.7-1.3-7.7-5.7c0-3.8,2-6.1,6.5-6.1
			c5.7,0,11.2,3.6,11.2,8.2L-20,725.4L-20,725.4z M-42.2,731.8c0.2,8.4,6,11.6,14.9,11.6c2.9,0,13.3-0.8,13.3-9.8v-20.2
			c0-1.5,0.7-2.1,2-2.1c0.6,0,1.3,0.2,2,0.2v-4.3c-1.1-0.2-1.9-0.6-3.3-0.6c-5.3,0-6.2,2.7-6.4,5.3c-2.3-2.5-6-5.7-13-5.7
			c-6.6,0-11.2,4.1-11.2,10.1c0,2.9,0.9,9.8,10.9,11l9.9,1.2c1.5,0.2,3.2,0.6,3.2,4.1c0,3.7-2.7,5.7-8.4,5.7c-6.9,0-7.8-4.1-8.2-6.8
			L-42.2,731.8"/>
		<path id="path80" class="st1" d="M27.4,707.4h-6.1V729c0,6.1-1.8,9.2-7.7,9.2c-3.4,0-9.5-2.2-9.5-11.6v-19.1H-2v35.1h5.7v-4.9h0.2
			c1.3,1.9,4.7,6,10.8,6c5.6,0,12.5-2.2,12.5-12.2L27.4,707.4"/>
		<path id="path82" class="st1" d="M57.1,730.7c-0.7,4.7-3.4,7.5-8.5,7.5c-7.5,0-9.9-7-9.9-13.2c0-6.1,1.5-13.5,9.9-13.5
			c4,0,7.5,3,8.6,8.3H63c-0.6-5.6-4.1-13.4-14.6-13.4c-10.1,0-16.1,7.4-16.1,17.5c0,10.8,5.3,19.5,17.2,19.5c9.5,0,13-6.7,13.5-12.9
			L57.1,730.7"/>
		<path id="path84" class="st1" d="M92.8,727.8c-0.3,5.4-2.7,10.4-10,10.4c-5.6,0-9.9-5-9.9-10.4H92.8z M98.7,718.4
			c-0.2-1.7-1.9-6.6-6.4-9.6c-1.6-1.1-4-2.4-9.8-2.4c-10.1,0-16.1,7.4-16.1,17.5c0,10.8,5.3,19.5,17.2,19.5c10.3,0,15.4-8,15.4-20.5
			H72.8c0-7.3,3.5-11.6,10.4-11.6c5.7,0,9.1,4.3,9.3,6.9L98.7,718.4"/>
		<path id="path86" class="st1" d="M134.4,707.4h-6.1v35.1h6.1V707.4z M128.3,748.9v6.7h6.1v-6.7H128.3"/>
		<path id="path88" class="st1" d="M174,707.4h-6.1V729c0,6.1-1.8,9.2-7.7,9.2c-3.4,0-9.5-2.2-9.5-11.6v-19.1h-6.1v35.1h5.7v-4.9
			h0.2c1.3,1.9,4.7,6,10.8,6c5.6,0,12.6-2.2,12.6-12.2v-24.1"/>
		<path id="path90" class="st1" d="M246.2,707.4v28.5c0,1.4,0.2,7.5,0.2,12h-0.2l-13.9-40.4h-6.6l-13.9,40.3h-0.2
			c0-4.4,0.2-10.5,0.2-12v-28.5h-6.5v48.2h9.5l14.1-40.7h0.2l14,40.7h9.5v-48.2L246.2,707.4"/>
		<path id="path92" class="st1" d="M286.2,727.8c-0.3,5.4-2.7,10.4-10,10.4c-5.6,0-9.9-5-9.9-10.4H286.2z M292,718.4
			c-0.2-1.7-1.9-6.6-6.4-9.6c-1.6-1.1-4-2.4-9.8-2.4c-10.1,0-16.1,7.4-16.1,17.5c0,10.8,5.3,19.5,17.2,19.5c10.3,0,15.4-8,15.4-20.5
			H266c0-7.3,3.5-11.6,10.4-11.6c5.7,0,9.1,4.3,9.3,6.9L292,718.4"/>
		<path id="path94" class="st1" d="M315.3,711.5c3.9,0,9.9,2.5,9.9,11.8c0,5.7-1,14.9-9.7,14.9c-9.3,0-9.9-8.7-9.9-13.2
			C305.7,717.4,308.8,711.5,315.3,711.5z M331.3,707.4h-5.7v4.9h-0.2c-2.6-4.8-6.7-5.8-10.3-5.8c-12.2,0-15.8,11.2-15.8,19.6
			c0,9.9,5.4,17.5,15,17.5c6.5,0,9.3-4,10.8-6l0.2,0.5v17.5h6.1L331.3,707.4"/>
		<path id="path96" class="st1" d="M347.7,707.4h-6.1v35.1h6.1V707.4z M341.7,748.9v6.7h6.1v-6.7H341.7"/>
		<path id="path98" class="st1" d="M382.3,730.7c-0.7,4.7-3.5,7.5-8.5,7.5c-7.5,0-9.9-7-9.9-13.2c0-6.1,1.5-13.5,9.9-13.5
			c4,0,7.6,3,8.6,8.3h5.8c-0.6-5.6-4.1-13.4-14.6-13.4c-10.1,0-16.1,7.4-16.1,17.5c0,10.8,5.3,19.5,17.2,19.5
			c9.4,0,12.9-6.7,13.4-12.9L382.3,730.7"/>
		<path id="path100" class="st1" d="M401.2,707.4h-6.1v35.1h6.1V707.4z M395.1,748.9v6.7h6.1v-6.7H395.1"/>
		<path id="path102" class="st1" d="M444.3,707.4h-6.1V729c0,6.1-1.8,9.2-7.7,9.2c-3.4,0-9.5-2.2-9.5-11.6v-19.1h-6v35.1h5.7v-4.9
			h0.2c1.3,1.9,4.7,6,10.8,6c5.6,0,12.5-2.2,12.5-12.2L444.3,707.4"/>
		<path id="path104" class="st1" d="M479.8,727.8c-0.3,5.4-2.7,10.4-10,10.4c-5.6,0-9.9-5-9.9-10.4H479.8z M485.6,718.4
			c-0.2-1.7-1.9-6.6-6.4-9.6c-1.6-1.1-4-2.4-9.8-2.4c-10.1,0-16.1,7.4-16.1,17.5c0,10.8,5.3,19.5,17.2,19.5c10.3,0,15.4-8,15.4-20.5
			h-26.2c0-7.3,3.5-11.6,10.4-11.6c5.7,0,9.1,4.3,9.3,6.9L485.6,718.4"/>
		<path id="path106" class="st1" d="M537,725.4c-1-0.7-2.5-1.3-9.9-2.2c-3-0.4-7.7-1.3-7.7-5.7c0-3.8,1.9-6.1,6.5-6.1
			c5.7,0,11.2,3.6,11.2,8.2L537,725.4L537,725.4z M514.9,731.8c0.2,8.4,6,11.6,14.9,11.6c2.9,0,13.3-0.8,13.3-9.8v-20.2
			c0-1.5,0.7-2.1,2-2.1c0.6,0,1.3,0.2,2,0.2v-4.3c-1.1-0.2-1.9-0.6-3.3-0.6c-5.3,0-6.1,2.7-6.4,5.3c-2.3-2.5-6-5.7-13-5.7
			c-6.5,0-11.2,4.1-11.2,10.1c0,2.9,0.9,9.8,10.9,11l9.9,1.2c1.5,0.2,3.2,0.6,3.2,4.1c0,3.7-2.7,5.7-8.4,5.7c-6.9,0-7.8-4.1-8.2-6.8
			L514.9,731.8"/>
		<path id="path108" class="st1" d="M584.5,707.4h-6.1V729c0,6.1-1.8,9.2-7.7,9.2c-3.4,0-9.5-2.2-9.5-11.6v-19.1h-6.1v35.1h5.7v-4.9
			h0.2c1.3,1.9,4.7,6,10.8,6c5.6,0,12.5-2.2,12.5-12.2L584.5,707.4"/>
		<path id="path110" class="st1" d="M609,711.5c3.9,0,9.9,2.5,9.9,11.8c0,5.7-1,14.9-9.7,14.9c-9.4,0-9.9-8.7-9.9-13.2
			C599.4,717.4,602.5,711.5,609,711.5z M625,707.4h-5.7v4.9h-0.2c-2.6-4.8-6.7-5.8-10.3-5.8c-12.2,0-15.8,11.2-15.8,19.6
			c0,9.9,5.4,17.5,15,17.5c6.5,0,9.3-4,10.8-6l0.2,0.5v17.5h6.1L625,707.4"/>
		<path id="path112" class="st1" d="M662.5,713h14.2c7,0,10.4,3.4,10.4,8.8c0,6.8-6.1,8.1-11.6,8.1h-13.1L662.5,713L662.5,713z
			 M662.5,735.2h12c6.4,0,10.3,1.9,10.3,7.8c0,4.5-2.8,7-10.3,7h-12.1L662.5,735.2z M655.8,755.6h21.7c9.2,0,13.9-5.6,13.9-12.1
			c0-3.2-1.2-7.6-6.6-10c3.2-1.3,8.9-3.5,8.9-11.7c0-7.7-5.8-14.2-16.7-14.2h-21.3L655.8,755.6"/>
		<path id="path114" class="st1" d="M708.1,707.4H702v35.1h6.1V707.4z M702,748.9v6.7h6.1v-6.7H702"/>
		<path id="path116" class="st1" d="M731.3,711.6c8.7,0,10.4,8.7,10.4,13.4s-1.8,13.4-10.4,13.4s-10.4-8.7-10.4-13.4
			S722.7,711.6,731.3,711.6z M731.3,743.6c11.5,0,16.7-9.5,16.7-18.5c0-9.1-5.3-18.5-16.7-18.5c-11.5,0-16.7,9.5-16.7,18.5
			C714.7,734.1,719.9,743.6,731.3,743.6"/>
		<path id="path118" class="st1" d="M755.2,707.4h6.1v48.2h-6.1V707.4z"/>
		<path id="path120" class="st1" d="M786.2,711.6c8.7,0,10.4,8.7,10.4,13.4s-1.8,13.4-10.4,13.4c-8.6,0-10.4-8.7-10.4-13.4
			C775.8,720.4,777.6,711.6,786.2,711.6z M786.2,743.6c11.5,0,16.7-9.5,16.7-18.5c0-9.1-5.3-18.5-16.7-18.5
			c-11.5,0-16.7,9.5-16.7,18.5C769.6,734.1,774.8,743.6,786.2,743.6"/>
		<path id="path122" class="st1" d="M825.9,711.5c3.8,0,9.8,2.5,9.8,11.8c0,5.7-1,14.9-9.7,14.9c-9.4,0-9.9-8.7-9.9-13.2
			C816.2,717.4,819.3,711.5,825.9,711.5z M841.5,710.3c0-5-0.1-17.6-16.7-17.6c-4.3,0-12.5,1.1-13.7,10.4h6.1
			c1.1-5.6,6.7-5.6,8.1-5.6c10.4,0,10.3,8.2,10.3,12.4v1.5h-0.2v-0.2c-1.6-2.5-4.8-4.7-9.5-4.7c-12.2,0-15.8,11.2-15.8,19.6
			c0,9.9,5.4,17.5,15,17.5c6.5,0,9.3-4,10.7-6h0.2v4.9h5.7L841.5,710.3"/>
		<path id="path124" class="st1" d="M874.2,742.5h6.6c-4.2-11.5-8.3-23-12.9-34.4c-5.7-14.2-6.3-15-14.1-15c-0.9,0-1.6,0.2-2.5,0.6
			v5.3c0.7-0.2,2-0.6,3.6-0.6c3.2,0,3.5,0.9,6.4,8.1l-13.3,36h6.9l9.5-28.5h0.2L874.2,742.5"/>
		<path id="path126" class="st1" d="M-260.1,953.9h-90.3v-35.8h82.9V888h-82.9v-44h94.3v-30.1h-129.2v170.2h125.1v-30.2"/>
		<path id="path128" class="st1" d="M-154.6,866.2c0.2-9.5,4.9-27.5,36.1-27.5c16.8,0,35.6,4,35.6,22.1c0,13.3-12.8,16.8-30.8,21.1
			l-18.3,4.3c-27.5,6.4-54,12.5-54,50c0,19,10.2,52.4,65.4,52.4c52.1,0,66.1-34.1,66.4-55h-34.1c-1,7.6-3.8,25.6-34.8,25.6
			c-13.5,0-29.6-5-29.6-20.4c0-13.3,10.9-16.1,18-17.8l41.5-10.2c23.2-5.7,44.5-15.2,44.5-45.8c0-51.2-52.1-55.7-67.1-55.7
			c-62.1,0-72.8,35.8-72.8,56.9L-154.6,866.2"/>
		<path id="path130" class="st1" d="M189,813.8h-33.2V956h-0.5l-31.8-142.2H88.7L57.7,956h-0.5V813.8H24V984h51.9l30.8-134.1h0.5
			L137.5,984H189V813.8"/>
		<path id="path132" class="st1" d="M346.9,909.1c18.5,0,27.5,6.4,27.5,23.2c0,9-4,22.3-24.9,22.3h-44.3v-45.5H346.9z M270.4,984h86
			c45.3,0,53.6-33.4,53.6-48.1c0-18.8-9.5-34.8-26.3-40.5c14-6.1,21.6-11.4,21.6-43.2c0-24.9,0-31,7.6-33.9v-4.5h-39.4
			c-2.3,8.1-3.8,16.8-3.8,34.4c0,23.2-1.5,32.3-27.7,32.3h-36.8v-66.6h-34.8L270.4,984"/>
		<path id="path134" class="st1" d="M653.5,813.8h-33.1V956h-0.5l-31.8-142.2h-34.8l-31,142.2h-0.5V813.8h-33.1V984h51.9l30.8-134.1
			h0.5L602.1,984h51.4V813.8"/>
		<path id="path136" class="st1" d="M768.9,843.2h43.6c17.3,0,27.2,7.6,27.2,24.9c0,15-12.8,20.6-25.6,20.6h-45.3L768.9,843.2
			L768.9,843.2z M768.9,917.5h41.7c14,0,25.1,5.4,25.1,19c0,14-9.9,18.3-26,18.3H769L768.9,917.5z M734.8,984h82.7
			c41.7,0,52.4-26,52.4-43.6c0-24.4-13.7-31.3-20.9-34.8c20.9-7.8,26.3-24.4,26.3-41.2c0-13.5-5.7-26.3-14.7-35.1
			c-9.7-9.5-19-15.4-53.8-15.4h-72V984"/>
	</g>
</g>
<rect id="rect894" x="196.2" y="0" class="st2" width="1655.7" height="27.3"/>
</svg>
