<?xml version="1.0" encoding="UTF-8" standalone="no"?>
<svg xmlns:dc="http://purl.org/dc/elements/1.1/" xmlns:cc="http://creativecommons.org/ns#" xmlns:rdf="http://www.w3.org/1999/02/22-rdf-syntax-ns#" xmlns:svg="http://www.w3.org/2000/svg" xmlns="http://www.w3.org/2000/svg" viewBox="0 0 378.14667 179.28" height="179.28" width="378.14667" xml:space="preserve" id="svg2" version="1.1"><metadata id="metadata8"><rdf:RDF><cc:Work rdf:about=""><dc:format>image/svg+xml</dc:format><dc:type rdf:resource="http://purl.org/dc/dcmitype/StillImage"/></cc:Work></rdf:RDF></metadata><defs id="defs6"/><g transform="matrix(1.3333333,0,0,-1.3333333,0,179.28)" id="g10"><g transform="scale(0.1)" id="g12"><path id="path14" style="fill:#5e6061;fill-opacity:1;fill-rule:nonzero;stroke:none" d="m 2163.8,1344.65 c -268.2,0 -500.2,-157.88 -608.01,-385.576 h 44.85 c 104.69,204.776 317.83,345.296 563.16,345.296 348.51,0 632.04,-283.54 632.04,-632.046 0,-348.504 -283.53,-632.0427 -632.04,-632.0427 -245.33,0 -458.47,140.5197 -563.16,345.2967 h -44.85 C 1663.6,157.891 1895.6,0 2163.8,0 c 370.72,0 672.32,301.602 672.32,672.324 0,370.716 -301.6,672.326 -672.32,672.326"/><path id="path16" style="fill:#5e6061;fill-opacity:1;fill-rule:nonzero;stroke:none" d="M 37.0234,521.168 H 0 v 48.965 H 36.5313 V 564.27 H 6.77344 V 549.266 H 34.2305 v -5.868 H 6.77344 V 527.031 H 37.0234 v -5.863"/><path id="path18" style="fill:#5e6061;fill-opacity:1;fill-rule:nonzero;stroke:none" d="m 66.2617,521.168 v 5.187 l -0.1445,0.129 c -2.582,-4.16 -5.7266,-6.339 -11.5938,-6.339 -5.3789,0 -11.875,2.523 -11.875,11.046 v 25.641 h 6.1524 v -23.664 c 0,-5.863 3.0703,-7.84 7.0508,-7.84 7.7539,0 10.0547,6.684 10.0547,11.871 v 19.633 h 6.1484 v -35.664 h -5.793"/><path id="path20" style="fill:#5e6061;fill-opacity:1;fill-rule:nonzero;stroke:none" d="m 89.0977,521.168 h -6.1485 v 35.664 h 5.7969 v -5.93 h 0.1406 c 2.4453,4.164 5.6524,6.957 10.2696,6.957 0.7695,0 1.1167,-0.066 1.6057,-0.207 v -6.207 h -2.305 c -5.7265,0 -9.3593,-4.363 -9.3593,-9.547 v -20.73"/><path id="path22" style="fill:#5e6061;fill-opacity:1;fill-rule:nonzero;stroke:none" d="m 118.391,525.398 c 8.8,0 10.617,8.868 10.617,13.637 0,4.781 -1.817,13.641 -10.617,13.641 -8.805,0 -10.618,-8.86 -10.618,-13.641 0,-4.769 1.813,-13.637 10.618,-13.637 z m 0,32.461 c 11.668,0 16.976,-9.613 16.976,-18.824 0,-9.207 -5.308,-18.82 -16.976,-18.82 -11.668,0 -16.977,9.613 -16.977,18.82 0,9.211 5.309,18.824 16.977,18.824"/><path id="path24" style="fill:#5e6061;fill-opacity:1;fill-rule:nonzero;stroke:none" d="m 158.555,525.328 c 6.703,0 9.847,5.934 9.847,13.781 0,4.563 -0.492,13.364 -9.988,13.364 -8.875,0 -9.848,-9.348 -9.848,-15.145 0,-9.476 6.079,-12 9.989,-12 z m -15.86,31.504 h 5.797 v -5.043 h 0.141 c 1.465,2.051 4.258,6.07 10.898,6.07 9.707,0 15.231,-7.777 15.231,-17.8 0,-8.524 -3.633,-19.914 -16.071,-19.914 -4.886,0 -8.105,2.25 -9.711,4.777 h -0.136 v -17.871 h -6.149 v 49.781"/><path id="path26" style="fill:#5e6061;fill-opacity:1;fill-rule:nonzero;stroke:none" d="m 208.004,541.832 c -0.356,5.523 -2.731,10.641 -10.207,10.641 -5.656,0 -10.133,-5.118 -10.133,-10.641 z m 5.863,-9.48 c -0.211,-1.707 -1.887,-6.75 -6.5,-9.754 -1.676,-1.086 -4.047,-2.453 -9.918,-2.453 -10.265,0 -16.344,7.57 -16.344,17.871 0,11.043 5.45,19.843 17.532,19.843 10.547,0 15.718,-8.179 15.718,-20.8 h -26.691 c 0,-7.43 3.566,-11.731 10.625,-11.731 5.793,0 9.223,4.363 9.43,7.024 h 6.148"/><path id="path28" style="fill:#5e6061;fill-opacity:1;fill-rule:nonzero;stroke:none" d="m 244.801,539.383 c -0.973,-0.754 -2.516,-1.301 -10.129,-2.254 -3,-0.41 -7.824,-1.297 -7.824,-5.797 0,-3.891 2.031,-6.211 6.632,-6.211 5.735,0 11.321,3.613 11.321,8.395 z m -22.496,6.609 c 0.285,8.528 6.078,11.867 15.09,11.867 2.937,0 13.55,-0.816 13.55,-9.957 v -20.527 c 0,-1.5 0.774,-2.113 2.028,-2.113 0.558,0 1.328,0.136 2.027,0.269 v -4.363 c -1.047,-0.273 -1.953,-0.68 -3.352,-0.68 -5.453,0 -6.289,2.727 -6.496,5.453 -2.375,-2.523 -6.082,-5.796 -13.203,-5.796 -6.707,0 -11.457,4.16 -11.457,10.296 0,3 0.91,9.961 11.11,11.192 l 10.128,1.226 c 1.461,0.133 3.211,0.68 3.211,4.223 0,3.754 -2.793,5.801 -8.589,5.801 -6.989,0 -7.969,-4.16 -8.387,-6.891 h -5.66"/><path id="path30" style="fill:#5e6061;fill-opacity:1;fill-rule:nonzero;stroke:none" d="m 291.941,521.168 h -6.144 v 21.957 c 0,6.207 -1.817,9.348 -7.828,9.348 -3.492,0 -9.641,-2.184 -9.641,-11.868 v -19.437 h -6.14 v 35.664 h 5.792 v -5.043 h 0.141 c 1.328,1.906 4.75,6.07 11.039,6.07 5.66,0 12.781,-2.254 12.781,-12.414 v -24.277"/><path id="path32" style="fill:#5e6061;fill-opacity:1;fill-rule:nonzero;stroke:none" d="m 354.273,555.816 c -0.347,7.571 -6.773,9.957 -12.437,9.957 -4.258,0 -11.453,-1.164 -11.453,-8.593 0,-4.16 3.008,-5.524 5.933,-6.211 l 14.325,-3.203 c 6.492,-1.5 11.386,-5.321 11.386,-13.09 0,-11.598 -11.035,-14.809 -19.629,-14.809 -9.293,0 -12.921,2.731 -15.156,4.707 -4.269,3.758 -5.101,7.848 -5.101,12.414 h 6.355 c 0,-8.863 7.406,-11.457 13.832,-11.457 4.895,0 13.133,1.227 13.133,8.258 0,5.113 -2.441,6.75 -10.688,8.656 l -10.269,2.321 c -3.281,0.754 -10.691,3 -10.691,11.523 0,7.645 5.105,15.145 17.261,15.145 17.535,0 19.278,-10.231 19.555,-15.618 h -6.356"/><path id="path34" style="fill:#5e6061;fill-opacity:1;fill-rule:nonzero;stroke:none" d="m 385.891,525.398 c 8.797,0 10.617,8.868 10.617,13.637 0,4.781 -1.82,13.641 -10.617,13.641 -8.805,0 -10.618,-8.86 -10.618,-13.641 0,-4.769 1.813,-13.637 10.618,-13.637 z m 0,32.461 c 11.668,0 16.976,-9.613 16.976,-18.824 0,-9.207 -5.308,-18.82 -16.976,-18.82 -11.668,0 -16.973,9.613 -16.973,18.82 0,9.211 5.305,18.824 16.973,18.824"/><path id="path36" style="fill:#5e6061;fill-opacity:1;fill-rule:nonzero;stroke:none" d="m 434.57,544.828 c -0.769,4.777 -3.496,7.645 -8.664,7.645 -7.613,0 -10.054,-7.098 -10.054,-13.438 0,-6.137 1.531,-13.707 9.988,-13.707 4.117,0 7.68,3.004 8.73,8.461 h 5.934 c -0.625,-5.664 -4.191,-13.644 -14.875,-13.644 -10.274,0 -16.348,7.57 -16.348,17.871 0,11.043 5.449,19.843 17.535,19.843 9.571,0 13.204,-6.82 13.688,-13.031 h -5.934"/><path id="path38" style="fill:#5e6061;fill-opacity:1;fill-rule:nonzero;stroke:none" d="m 454.137,521.168 h -6.149 v 35.664 h 6.149 z m -6.149,42.148 v 6.817 h 6.149 v -6.817 h -6.149"/><path id="path40" style="fill:#5e6061;fill-opacity:1;fill-rule:nonzero;stroke:none" d="m 491.609,541.832 c -0.347,5.523 -2.722,10.641 -10.199,10.641 -5.656,0 -10.133,-5.118 -10.133,-10.641 z m 5.868,-9.48 c -0.207,-1.707 -1.879,-6.75 -6.497,-9.754 -1.671,-1.086 -4.05,-2.453 -9.921,-2.453 -10.266,0 -16.34,7.57 -16.34,17.871 0,11.043 5.449,19.843 17.531,19.843 10.547,0 15.719,-8.179 15.719,-20.8 h -26.692 c 0,-7.43 3.567,-11.731 10.621,-11.731 5.797,0 9.223,4.363 9.43,7.024 h 6.149"/><path id="path42" style="fill:#5e6061;fill-opacity:1;fill-rule:nonzero;stroke:none" d="m 514.727,551.859 v -23.191 c 0,-2.793 2.437,-2.793 3.703,-2.793 h 2.16 v -4.707 c -2.235,-0.203 -3.985,-0.477 -4.61,-0.477 -6.078,0 -7.406,3.336 -7.406,7.641 v 23.527 h -4.961 v 4.973 h 4.961 v 9.961 h 6.153 v -9.961 h 5.863 v -4.973 h -5.863"/><path id="path44" style="fill:#5e6061;fill-opacity:1;fill-rule:nonzero;stroke:none" d="m 550.727,556.832 h 6.773 c -4.258,-11.656 -8.453,-23.316 -13.129,-34.98 -5.801,-14.457 -6.426,-15.274 -14.32,-15.274 -0.91,0 -1.61,0.27 -2.59,0.543 v 5.453 c 0.769,-0.273 2.031,-0.609 3.707,-0.609 3.211,0 3.559,0.883 6.492,8.25 l -13.551,36.617 h 6.985 l 9.711,-29.047 h 0.14 l 9.782,29.047"/><path id="path46" style="fill:#5e6061;fill-opacity:1;fill-rule:nonzero;stroke:none" d="m 586.391,551.859 v -30.691 h -6.149 v 30.691 h -5.027 v 4.973 h 5.027 v 6.145 c 0,5.382 3.496,7.839 9.504,7.839 0.906,0 1.817,-0.062 2.797,-0.136 v -5.387 c -0.77,0.07 -1.75,0.133 -2.516,0.133 -2.66,0 -3.636,-1.289 -3.636,-4.16 v -4.434 h 6.152 v -4.973 h -6.152"/><path id="path48" style="fill:#5e6061;fill-opacity:1;fill-rule:nonzero;stroke:none" d="m 614.016,525.398 c 8.797,0 10.617,8.868 10.617,13.637 0,4.781 -1.82,13.641 -10.617,13.641 -8.805,0 -10.618,-8.86 -10.618,-13.641 0,-4.769 1.813,-13.637 10.618,-13.637 z m 0,32.461 c 11.668,0 16.976,-9.613 16.976,-18.824 0,-9.207 -5.308,-18.82 -16.976,-18.82 -11.668,0 -16.973,9.613 -16.973,18.82 0,9.211 5.305,18.824 16.973,18.824"/><path id="path50" style="fill:#5e6061;fill-opacity:1;fill-rule:nonzero;stroke:none" d="m 646.836,521.168 h -6.148 v 35.664 h 5.8 v -5.93 h 0.137 c 2.445,4.164 5.66,6.957 10.27,6.957 0.773,0 1.117,-0.066 1.605,-0.207 v -6.207 h -2.301 c -5.73,0 -9.363,-4.363 -9.363,-9.547 v -20.73"/><path id="path52" style="fill:#5e6061;fill-opacity:1;fill-rule:nonzero;stroke:none" d="m 722.621,521.168 v 28.914 c 0,1.434 0.137,7.645 0.137,12.207 h -0.137 l -14.109,-41.121 h -6.711 l -14.11,41.055 h -0.14 c 0,-4.496 0.14,-10.707 0.14,-12.141 v -28.914 h -6.57 v 48.965 h 9.715 l 14.32,-41.399 h 0.137 l 14.258,41.399 h 9.633 v -48.965 h -6.563"/><path id="path54" style="fill:#5e6061;fill-opacity:1;fill-rule:nonzero;stroke:none" d="m 763.922,539.383 c -0.973,-0.754 -2.516,-1.301 -10.129,-2.254 -3,-0.41 -7.82,-1.297 -7.82,-5.797 0,-3.891 2.023,-6.211 6.632,-6.211 5.731,0 11.317,3.613 11.317,8.395 z m -22.496,6.609 c 0.285,8.528 6.078,11.867 15.094,11.867 2.933,0 13.546,-0.816 13.546,-9.957 v -20.527 c 0,-1.5 0.774,-2.113 2.036,-2.113 0.554,0 1.328,0.136 2.019,0.269 v -4.363 c -1.047,-0.273 -1.953,-0.68 -3.348,-0.68 -5.457,0 -6.293,2.727 -6.496,5.453 -2.379,-2.523 -6.078,-5.796 -13.207,-5.796 -6.707,0 -11.457,4.16 -11.457,10.296 0,3 0.91,9.961 11.11,11.192 l 10.129,1.226 c 1.468,0.133 3.211,0.68 3.211,4.223 0,3.754 -2.793,5.801 -8.59,5.801 -6.989,0 -7.969,-4.16 -8.383,-6.891 h -5.664"/><path id="path56" style="fill:#5e6061;fill-opacity:1;fill-rule:nonzero;stroke:none" d="m 796.816,525.328 c 3.911,0 9.993,2.524 9.993,12 0,5.797 -0.985,15.145 -9.856,15.145 -9.496,0 -9.988,-8.801 -9.988,-13.364 0,-7.847 3.148,-13.781 9.851,-13.781 z m 15.86,-1.226 c 0,-5.118 -0.071,-17.938 -16.977,-17.938 -4.332,0 -12.785,1.156 -13.976,10.641 h 6.152 c 1.117,-5.66 6.773,-5.66 8.242,-5.66 10.617,0 10.41,8.32 10.41,12.546 v 1.504 h -0.14 v -0.273 c -1.614,-2.527 -4.821,-4.777 -9.711,-4.777 -12.438,0 -16.071,11.39 -16.071,19.914 0,10.023 5.524,17.8 15.231,17.8 6.641,0 9.434,-4.019 10.898,-6.07 h 0.141 v 5.043 h 5.801 v -32.73"/><path id="path58" style="fill:#5e6061;fill-opacity:1;fill-rule:nonzero;stroke:none" d="m 852.828,521.168 h -6.148 v 21.957 c 0,6.207 -1.813,9.348 -7.825,9.348 -3.496,0 -9.64,-2.184 -9.64,-11.868 v -19.437 h -6.145 v 35.664 h 5.797 v -5.043 h 0.141 c 1.324,1.906 4.754,6.07 11.035,6.07 5.664,0 12.785,-2.254 12.785,-12.414 v -24.277"/><path id="path60" style="fill:#5e6061;fill-opacity:1;fill-rule:nonzero;stroke:none" d="m 888.938,541.832 c -0.352,5.523 -2.731,10.641 -10.204,10.641 -5.66,0 -10.129,-5.118 -10.129,-10.641 z m 5.863,-9.48 c -0.207,-1.707 -1.879,-6.75 -6.496,-9.754 -1.672,-1.086 -4.051,-2.453 -9.922,-2.453 -10.27,0 -16.348,7.57 -16.348,17.871 0,11.043 5.453,19.843 17.539,19.843 10.547,0 15.719,-8.179 15.719,-20.8 h -26.688 c 0,-7.43 3.563,-11.731 10.618,-11.731 5.797,0 9.222,4.363 9.429,7.024 h 6.149"/><path id="path62" style="fill:#5e6061;fill-opacity:1;fill-rule:nonzero;stroke:none" d="m 912.047,551.859 v -23.191 c 0,-2.793 2.441,-2.793 3.707,-2.793 h 2.16 v -4.707 c -2.238,-0.203 -3.984,-0.477 -4.609,-0.477 -6.078,0 -7.407,3.336 -7.407,7.641 v 23.527 h -4.96 v 4.973 h 4.96 v 9.961 h 6.149 v -9.961 h 5.867 v -4.973 h -5.867"/><path id="path64" style="fill:#5e6061;fill-opacity:1;fill-rule:nonzero;stroke:none" d="M 931.148,521.168 H 925 v 35.664 h 6.148 z M 925,563.316 v 6.817 h 6.148 v -6.817 H 925"/><path id="path66" style="fill:#5e6061;fill-opacity:1;fill-rule:nonzero;stroke:none" d="m 968.063,544.828 c -0.774,4.777 -3.497,7.645 -8.665,7.645 -7.617,0 -10.058,-7.098 -10.058,-13.438 0,-6.137 1.535,-13.707 9.992,-13.707 4.113,0 7.68,3.004 8.731,8.461 h 5.929 c -0.625,-5.664 -4.187,-13.644 -14.871,-13.644 -10.273,0 -16.348,7.57 -16.348,17.871 0,11.043 5.45,19.843 17.536,19.843 9.57,0 13.203,-6.82 13.683,-13.031 h -5.929"/><path id="path68" style="fill:#5e6061;fill-opacity:1;fill-rule:nonzero;stroke:none" d="m 1004.49,547.832 h 15.72 c 4.97,0 10.2,1.227 10.2,8.457 0,7.574 -5.66,8.184 -9.01,8.184 h -16.91 z m 0,-26.664 h -6.771 v 48.965 h 23.191 c 8.24,0 16.49,-2.793 16.49,-13.16 0,-7.231 -3.78,-9.891 -6.99,-11.727 2.87,-1.164 5.73,-2.387 6.01,-9.211 l 0.42,-8.859 c 0.07,-2.731 0.42,-3.758 2.52,-4.914 v -1.094 h -8.32 c -0.98,3.004 -1.19,10.434 -1.19,12.273 0,4.032 -0.84,8.735 -8.94,8.735 h -16.42 v -21.008"/><path id="path70" style="fill:#5e6061;fill-opacity:1;fill-rule:nonzero;stroke:none" d="m 1070.41,541.832 c -0.35,5.523 -2.72,10.641 -10.2,10.641 -5.66,0 -10.13,-5.118 -10.13,-10.641 z m 5.87,-9.48 c -0.21,-1.707 -1.89,-6.75 -6.5,-9.754 -1.67,-1.086 -4.05,-2.453 -9.92,-2.453 -10.27,0 -16.34,7.57 -16.34,17.871 0,11.043 5.44,19.843 17.53,19.843 10.55,0 15.72,-8.179 15.72,-20.8 h -26.69 c 0,-7.43 3.56,-11.731 10.62,-11.731 5.79,0 9.22,4.363 9.43,7.024 h 6.15"/><path id="path72" style="fill:#5e6061;fill-opacity:1;fill-rule:nonzero;stroke:none" d="m 1104.98,546.676 c -0.07,2.25 -0.92,6 -8.67,6 -1.88,0 -7.27,-0.613 -7.27,-5.047 0,-2.93 1.89,-3.613 6.64,-4.77 l 6.16,-1.5 c 7.61,-1.847 10.26,-4.578 10.26,-9.414 0,-7.371 -6.22,-11.8 -14.46,-11.8 -14.46,0 -15.51,8.187 -15.72,12.476 h 5.94 c 0.21,-2.793 1.05,-7.293 9.71,-7.293 4.4,0 8.38,1.703 8.38,5.66 0,2.867 -2.02,3.817 -7.26,5.117 l -7.13,1.704 c -5.1,1.226 -8.45,3.754 -8.45,8.664 0,7.84 6.64,11.386 13.83,11.386 13.06,0 13.97,-9.41 13.97,-11.183 h -5.93"/><path id="path74" style="fill:#5e6061;fill-opacity:1;fill-rule:nonzero;stroke:none" d="m 1132.44,525.398 c 8.79,0 10.62,8.868 10.62,13.637 0,4.781 -1.83,13.641 -10.62,13.641 -8.81,0 -10.62,-8.86 -10.62,-13.641 0,-4.769 1.81,-13.637 10.62,-13.637 z m 0,32.461 c 11.67,0 16.97,-9.613 16.97,-18.824 0,-9.207 -5.3,-18.82 -16.97,-18.82 -11.67,0 -16.98,9.613 -16.98,18.82 0,9.211 5.31,18.824 16.98,18.824"/><path id="path76" style="fill:#5e6061;fill-opacity:1;fill-rule:nonzero;stroke:none" d="m 1186.28,521.168 h -6.14 v 21.957 c 0,6.207 -1.82,9.348 -7.83,9.348 -3.49,0 -9.64,-2.184 -9.64,-11.868 v -19.437 h -6.14 v 35.664 h 5.79 v -5.043 h 0.15 c 1.32,1.906 4.75,6.07 11.03,6.07 5.66,0 12.78,-2.254 12.78,-12.414 v -24.277"/><path id="path78" style="fill:#5e6061;fill-opacity:1;fill-rule:nonzero;stroke:none" d="m 1217.78,539.383 c -0.98,-0.754 -2.51,-1.301 -10.13,-2.254 -3,-0.41 -7.82,-1.297 -7.82,-5.797 0,-3.891 2.03,-6.211 6.63,-6.211 5.74,0 11.32,3.613 11.32,8.395 z m -22.49,6.609 c 0.28,8.528 6.08,11.867 15.09,11.867 2.93,0 13.55,-0.816 13.55,-9.957 v -20.527 c 0,-1.5 0.77,-2.113 2.03,-2.113 0.55,0 1.33,0.136 2.02,0.269 v -4.363 c -1.04,-0.273 -1.96,-0.68 -3.35,-0.68 -5.45,0 -6.29,2.727 -6.5,5.453 -2.37,-2.523 -6.07,-5.796 -13.2,-5.796 -6.71,0 -11.46,4.16 -11.46,10.296 0,3 0.91,9.961 11.11,11.192 l 10.13,1.226 c 1.47,0.133 3.21,0.68 3.21,4.223 0,3.754 -2.79,5.801 -8.59,5.801 -6.99,0 -7.96,-4.16 -8.38,-6.891 h -5.66"/><path id="path80" style="fill:#5e6061;fill-opacity:1;fill-rule:nonzero;stroke:none" d="m 1265.97,521.168 h -6.15 v 21.957 c 0,6.207 -1.81,9.348 -7.82,9.348 -3.49,0 -9.64,-2.184 -9.64,-11.868 v -19.437 h -6.14 v 35.664 h 5.79 v -5.043 h 0.14 c 1.33,1.906 4.75,6.07 11.04,6.07 5.66,0 12.78,-2.254 12.78,-12.414 v -24.277"/><path id="path82" style="fill:#5e6061;fill-opacity:1;fill-rule:nonzero;stroke:none" d="m 1296.28,544.828 c -0.77,4.777 -3.49,7.645 -8.66,7.645 -7.61,0 -10.06,-7.098 -10.06,-13.438 0,-6.137 1.53,-13.707 9.99,-13.707 4.12,0 7.68,3.004 8.73,8.461 h 5.94 c -0.63,-5.664 -4.19,-13.644 -14.88,-13.644 -10.28,0 -16.35,7.57 -16.35,17.871 0,11.043 5.45,19.843 17.53,19.843 9.58,0 13.21,-6.82 13.7,-13.031 h -5.94"/><path id="path84" style="fill:#5e6061;fill-opacity:1;fill-rule:nonzero;stroke:none" d="m 1332.62,541.832 c -0.35,5.523 -2.73,10.641 -10.21,10.641 -5.65,0 -10.12,-5.118 -10.12,-10.641 z m 5.86,-9.48 c -0.21,-1.707 -1.88,-6.75 -6.49,-9.754 -1.68,-1.086 -4.05,-2.453 -9.93,-2.453 -10.26,0 -16.34,7.57 -16.34,17.871 0,11.043 5.45,19.843 17.53,19.843 10.55,0 15.72,-8.179 15.72,-20.8 h -26.68 c 0,-7.43 3.56,-11.731 10.61,-11.731 5.8,0 9.22,4.363 9.43,7.024 h 6.15"/><path id="path86" style="fill:#5e6061;fill-opacity:1;fill-rule:nonzero;stroke:none" d="m 1374.82,521.168 h -6.14 v 35.664 h 6.14 z m -6.14,42.148 v 6.817 h 6.14 v -6.817 h -6.14"/><path id="path88" style="fill:#5e6061;fill-opacity:1;fill-rule:nonzero;stroke:none" d="m 1415.17,521.168 h -6.15 v 21.957 c 0,6.207 -1.82,9.348 -7.83,9.348 -3.49,0 -9.65,-2.184 -9.65,-11.868 v -19.437 h -6.14 v 35.664 h 5.79 v -5.043 h 0.15 c 1.33,1.906 4.74,6.07 11.04,6.07 5.66,0 12.79,-2.254 12.79,-12.414 v -24.277"/><path id="path90" style="fill:#5e6061;fill-opacity:1;fill-rule:nonzero;stroke:none" d="m 1488.52,521.168 v 28.914 c 0,1.434 0.15,7.645 0.15,12.207 h -0.15 l -14.11,-41.121 h -6.71 l -14.1,41.055 h -0.14 c 0,-4.496 0.14,-10.707 0.14,-12.141 v -28.914 h -6.57 v 48.965 h 9.71 l 14.32,-41.399 h 0.14 l 14.25,41.399 h 9.64 v -48.965 h -6.57"/><path id="path92" style="fill:#5e6061;fill-opacity:1;fill-rule:nonzero;stroke:none" d="m 1529.21,541.832 c -0.35,5.523 -2.73,10.641 -10.21,10.641 -5.66,0 -10.12,-5.118 -10.12,-10.641 z m 5.86,-9.48 c -0.21,-1.707 -1.89,-6.75 -6.49,-9.754 -1.68,-1.086 -4.06,-2.453 -9.92,-2.453 -10.27,0 -16.36,7.57 -16.36,17.871 0,11.043 5.45,19.843 17.54,19.843 10.55,0 15.72,-8.179 15.72,-20.8 h -26.68 c 0,-7.43 3.56,-11.731 10.61,-11.731 5.8,0 9.23,4.363 9.44,7.024 h 6.14"/><path id="path94" style="fill:#5e6061;fill-opacity:1;fill-rule:nonzero;stroke:none" d="m 1558.88,525.328 c 3.91,0 9.99,2.524 9.99,12 0,5.797 -0.98,15.145 -9.86,15.145 -9.49,0 -9.99,-8.801 -9.99,-13.364 0,-7.847 3.16,-13.781 9.86,-13.781 z m 16.21,-4.16 h -5.79 v 4.91 h -0.15 c -2.66,-4.844 -6.85,-5.933 -10.41,-5.933 -12.43,0 -16.06,11.39 -16.06,19.914 0,10.023 5.51,17.8 15.22,17.8 6.64,0 9.43,-4.019 10.9,-6.07 l 0.14,0.477 v 17.867 h 6.15 v -48.965"/><path id="path96" style="fill:#5e6061;fill-opacity:1;fill-rule:nonzero;stroke:none" d="m 1591.77,521.168 h -6.14 v 35.664 h 6.14 z m -6.14,42.148 v 6.817 h 6.14 v -6.817 h -6.14"/><path id="path98" style="fill:#5e6061;fill-opacity:1;fill-rule:nonzero;stroke:none" d="m 1626.94,544.828 c -0.77,4.777 -3.5,7.645 -8.67,7.645 -7.62,0 -10.06,-7.098 -10.06,-13.438 0,-6.137 1.55,-13.707 9.99,-13.707 4.12,0 7.69,3.004 8.74,8.461 h 5.93 c -0.62,-5.664 -4.18,-13.644 -14.87,-13.644 -10.28,0 -16.35,7.57 -16.35,17.871 0,11.043 5.45,19.843 17.54,19.843 9.57,0 13.19,-6.82 13.68,-13.031 h -5.93"/><path id="path100" style="fill:#5e6061;fill-opacity:1;fill-rule:nonzero;stroke:none" d="m 1646.15,521.168 h -6.14 v 35.664 h 6.14 z m -6.14,42.148 v 6.817 h 6.14 v -6.817 h -6.14"/><path id="path102" style="fill:#5e6061;fill-opacity:1;fill-rule:nonzero;stroke:none" d="m 1689.99,521.168 h -6.15 v 21.957 c 0,6.207 -1.82,9.348 -7.82,9.348 -3.49,0 -9.64,-2.184 -9.64,-11.868 v -19.437 h -6.15 v 35.664 h 5.79 v -5.043 h 0.14 c 1.34,1.906 4.76,6.07 11.05,6.07 5.65,0 12.78,-2.254 12.78,-12.414 v -24.277"/><path id="path104" style="fill:#5e6061;fill-opacity:1;fill-rule:nonzero;stroke:none" d="m 1726.09,541.832 c -0.35,5.523 -2.72,10.641 -10.19,10.641 -5.67,0 -10.14,-5.118 -10.14,-10.641 z m 5.87,-9.48 c -0.21,-1.707 -1.89,-6.75 -6.49,-9.754 -1.68,-1.086 -4.05,-2.453 -9.92,-2.453 -10.27,0 -16.35,7.57 -16.35,17.871 0,11.043 5.45,19.843 17.53,19.843 10.54,0 15.72,-8.179 15.72,-20.8 h -26.69 c 0,-7.43 3.57,-11.731 10.63,-11.731 5.79,0 9.22,4.363 9.43,7.024 h 6.14"/><path id="path106" style="fill:#5e6061;fill-opacity:1;fill-rule:nonzero;stroke:none" d="m 1784.31,539.383 c -0.99,-0.754 -2.52,-1.301 -10.13,-2.254 -3.02,-0.41 -7.82,-1.297 -7.82,-5.797 0,-3.891 2.01,-6.211 6.62,-6.211 5.73,0 11.33,3.613 11.33,8.395 z m -22.5,6.609 c 0.28,8.528 6.07,11.867 15.09,11.867 2.93,0 13.55,-0.816 13.55,-9.957 v -20.527 c 0,-1.5 0.76,-2.113 2.03,-2.113 0.56,0 1.32,0.136 2.02,0.269 v -4.363 c -1.05,-0.273 -1.95,-0.68 -3.36,-0.68 -5.45,0 -6.28,2.727 -6.49,5.453 -2.38,-2.523 -6.08,-5.796 -13.2,-5.796 -6.7,0 -11.46,4.16 -11.46,10.296 0,3 0.91,9.961 11.1,11.192 l 10.13,1.226 c 1.48,0.133 3.22,0.68 3.22,4.223 0,3.754 -2.79,5.801 -8.59,5.801 -6.98,0 -7.97,-4.16 -8.38,-6.891 h -5.66"/><path id="path108" style="fill:#5e6061;fill-opacity:1;fill-rule:nonzero;stroke:none" d="m 1832.5,521.168 h -6.15 v 21.957 c 0,6.207 -1.83,9.348 -7.83,9.348 -3.49,0 -9.64,-2.184 -9.64,-11.868 v -19.437 h -6.15 v 35.664 h 5.79 v -5.043 h 0.15 c 1.33,1.906 4.75,6.07 11.05,6.07 5.65,0 12.78,-2.254 12.78,-12.414 v -24.277"/><path id="path110" style="fill:#5e6061;fill-opacity:1;fill-rule:nonzero;stroke:none" d="m 1857.56,525.328 c 3.91,0 9.99,2.524 9.99,12 0,5.797 -0.98,15.145 -9.85,15.145 -9.5,0 -10,-8.801 -10,-13.364 0,-7.847 3.16,-13.781 9.86,-13.781 z m 16.21,-4.16 h -5.8 v 4.91 h -0.15 c -2.65,-4.844 -6.83,-5.933 -10.41,-5.933 -12.43,0 -16.06,11.39 -16.06,19.914 0,10.023 5.51,17.8 15.23,17.8 6.64,0 9.44,-4.019 10.9,-6.07 l 0.14,0.477 v 17.867 h 6.15 v -48.965"/><path id="path112" style="fill:#5e6061;fill-opacity:1;fill-rule:nonzero;stroke:none" d="m 1911.93,526.828 h 14.46 c 7.05,0 10.62,3.481 10.62,8.934 0,6.886 -6.23,8.254 -11.74,8.254 h -13.34 z m 0,22.578 h 12.23 c 6.48,0 10.47,1.91 10.47,7.907 0,4.574 -2.86,7.16 -10.4,7.16 h -12.3 z m -6.78,20.727 h 22.08 c 9.36,0 14.18,-5.66 14.18,-12.34 0,-3.207 -1.2,-7.711 -6.71,-10.234 3.28,-1.293 9.08,-3.543 9.08,-11.934 0,-7.84 -5.94,-14.457 -17.04,-14.457 h -21.59 v 48.965"/><path id="path114" style="fill:#5e6061;fill-opacity:1;fill-rule:nonzero;stroke:none" d="m 1958.21,521.168 h -6.14 v 35.664 h 6.14 z m -6.14,42.148 v 6.817 h 6.14 v -6.817 h -6.14"/><path id="path116" style="fill:#5e6061;fill-opacity:1;fill-rule:nonzero;stroke:none" d="m 1981.92,525.398 c 8.8,0 10.63,8.868 10.63,13.637 0,4.781 -1.83,13.641 -10.63,13.641 -8.79,0 -10.62,-8.86 -10.62,-13.641 0,-4.769 1.83,-13.637 10.62,-13.637 z m 0,32.461 c 11.66,0 16.98,-9.613 16.98,-18.824 0,-9.207 -5.32,-18.82 -16.98,-18.82 -11.67,0 -16.97,9.613 -16.97,18.82 0,9.211 5.3,18.824 16.97,18.824"/><path id="path118" style="fill:#5e6061;fill-opacity:1;fill-rule:nonzero;stroke:none" d="m 2006.15,521.168 h 6.1406 v 48.9648 h -6.1406 z"/><path id="path120" style="fill:#5e6061;fill-opacity:1;fill-rule:nonzero;stroke:none" d="m 2037.76,525.398 c 8.8,0 10.62,8.868 10.62,13.637 0,4.781 -1.82,13.641 -10.62,13.641 -8.81,0 -10.62,-8.86 -10.62,-13.641 0,-4.769 1.81,-13.637 10.62,-13.637 z m 0,32.461 c 11.66,0 16.97,-9.613 16.97,-18.824 0,-9.207 -5.31,-18.82 -16.97,-18.82 -11.67,0 -16.98,9.613 -16.98,18.82 0,9.211 5.31,18.824 16.98,18.824"/><path id="path122" style="fill:#5e6061;fill-opacity:1;fill-rule:nonzero;stroke:none" d="m 2078.06,525.328 c 3.9,0 9.98,2.524 9.98,12 0,5.797 -0.97,15.145 -9.84,15.145 -9.5,0 -9.99,-8.801 -9.99,-13.364 0,-7.847 3.14,-13.781 9.85,-13.781 z m 15.86,-1.226 c 0,-5.118 -0.07,-17.938 -16.99,-17.938 -4.32,0 -12.78,1.156 -13.96,10.641 h 6.14 c 1.11,-5.66 6.79,-5.66 8.24,-5.66 10.62,0 10.41,8.32 10.41,12.546 v 1.504 h -0.13 v -0.273 c -1.61,-2.527 -4.83,-4.777 -9.72,-4.777 -12.42,0 -16.06,11.39 -16.06,19.914 0,10.023 5.51,17.8 15.23,17.8 6.64,0 9.43,-4.019 10.89,-6.07 h 0.16 v 5.043 h 5.79 v -32.73"/><path id="path124" style="fill:#5e6061;fill-opacity:1;fill-rule:nonzero;stroke:none" d="m 2127.16,556.832 h 6.78 c -4.27,-11.656 -8.46,-23.316 -13.15,-34.98 -5.79,-14.457 -6.41,-15.274 -14.31,-15.274 -0.91,0 -1.61,0.27 -2.58,0.543 v 5.453 c 0.76,-0.273 2.02,-0.609 3.7,-0.609 3.2,0 3.56,0.883 6.49,8.25 l -13.55,36.617 h 6.98 l 9.72,-29.047 h 0.13 l 9.79,29.047"/><path id="path126" style="fill:#5e6061;fill-opacity:1;fill-rule:nonzero;stroke:none" d="m 973.621,771.828 h -91.828 v -36.402 h 84.359 V 704.82 h -84.359 v -44.828 h 95.926 V 629.375 H 846.355 v 173.063 h 127.266 v -30.61"/><path id="path128" style="fill:#5e6061;fill-opacity:1;fill-rule:nonzero;stroke:none" d="m 1080.95,682.645 c 0.23,-9.641 5.05,-27.961 36.63,-27.961 17.11,0 36.15,4.097 36.15,22.421 0,13.493 -13.01,17.11 -31.33,21.45 l -18.57,4.336 c -27.95,6.507 -54.94,12.773 -54.94,50.859 0,19.281 10.36,53.27 66.51,53.27 53.04,0 67.26,-34.715 67.5,-55.926 h -34.71 c -0.97,7.715 -3.85,26.035 -35.43,26.035 -13.75,0 -30.13,-5.066 -30.13,-20.731 0,-13.496 11.09,-16.386 18.32,-18.074 l 42.18,-10.371 c 23.62,-5.773 45.31,-15.418 45.31,-46.512 0,-52.066 -53.03,-56.64 -68.21,-56.64 -63.15,0 -74,36.39 -74,57.844 h 34.72"/><path id="path130" style="fill:#5e6061;fill-opacity:1;fill-rule:nonzero;stroke:none" d="m 1430.42,629.375 h -33.75 v 144.621 h -0.48 l -32.32,-144.621 h -35.43 l -31.58,144.621 h -0.48 V 629.375 h -33.74 v 173.063 h 52.78 l 31.33,-136.426 h 0.49 l 30.85,136.426 h 52.33 V 629.375"/><path id="path132" style="fill:#5e6061;fill-opacity:1;fill-rule:nonzero;stroke:none" d="m 1590.97,726.273 c 18.8,0 27.97,6.512 27.97,23.622 0,9.156 -4.11,22.66 -25.32,22.66 h -45.08 v -46.282 z m -77.86,76.165 h 87.5 c 46.04,0 54.48,-33.989 54.48,-48.93 0,-19.039 -9.64,-35.43 -26.76,-41.211 14.22,-6.274 21.94,-11.574 21.94,-43.871 0,-25.305 0,-31.574 7.71,-34.469 v -4.582 h -40.02 c -2.41,8.195 -3.85,17.113 -3.85,34.957 0,23.617 -1.44,32.773 -28.2,32.773 h -37.37 v -67.73 h -35.43 v 173.063"/><path id="path134" style="fill:#5e6061;fill-opacity:1;fill-rule:nonzero;stroke:none" d="m 1902.77,629.375 h -33.73 v 144.621 h -0.5 l -32.29,-144.621 h -35.43 l -31.57,144.621 h -0.49 V 629.375 h -33.74 v 173.063 h 52.78 l 31.34,-136.426 h 0.48 l 30.85,136.426 h 52.3 V 629.375"/><path id="path136" style="fill:#5e6061;fill-opacity:1;fill-rule:nonzero;stroke:none" d="m 2020.18,659.27 h 44.35 c 17.58,0 27.71,7.703 27.71,25.304 0,15.184 -13.01,20.969 -26.03,20.969 h -46.03 z m 0,75.437 h 42.42 c 14.23,0 25.53,5.539 25.53,19.281 0,14.219 -10.11,18.567 -26.51,18.567 h -41.44 z m -34.71,67.731 h 84.12 c 42.41,0 53.26,-26.512 53.26,-44.344 0,-24.832 -13.98,-31.821 -21.21,-35.438 21.21,-7.953 26.76,-24.828 26.76,-41.937 0,-13.746 -5.78,-26.758 -14.95,-35.676 -9.89,-9.637 -19.28,-15.668 -54.71,-15.668 h -73.27 v 173.063"/></g></g></svg>